<svg width="48" height="48" xmlns="http://www.w3.org/2000/svg">

 <g>
  <title>Layer 1</title>
  <circle id="svg_1" fill="#1787b2" r="24" cy="24" cx="24" class="cls-1"/>
  <path id="svg_2" fill="#fff" d="m17.4,34.9l-4.6,0l0,-14.8l4.6,0l0,14.8zm-2.5,-16.7l0,0a2.61,2.61 0 1 1 2.8,-2.6a2.53,2.53 0 0 1 -2.8,2.6zm21,16.7l-5.3,0l0,-7.7c0,-2 -0.8,-3.4 -2.6,-3.4a2.64,2.64 0 0 0 -2.5,1.8a4.48,4.48 0 0 0 -0.1,1.2l0,8l-5.2,0s0.1,-13.6 0,-14.8l5.2,0l0,2.3c0.3,-1 2,-2.5 4.6,-2.5c3.3,0 5.9,2.1 5.9,6.7l0,8.4z" class="cls-2"/>
 </g>
</svg>