<svg width="48" height="48" xmlns="http://www.w3.org/2000/svg" data-name="Layer 20">

 <g>
  <title>Layer 1</title>
  <circle id="svg_1" fill="#ca3938" r="24" cy="24" cx="24" class="cls-1"/>
  <path id="svg_2" fill="#fff" d="m24,12.09a11.91,11.91 0 0 0 -4.8,22.8a12.74,12.74 0 0 1 0.2,-2.7c0.2,-1 1.5,-6.5 1.5,-6.5a4.65,4.65 0 0 1 -0.4,-1.9c0,-1.8 1,-3.1 2.3,-3.1c1.1,0 1.6,0.8 1.6,1.8s-0.7,2.7 -1,4.2a1.87,1.87 0 0 0 1.9,2.3c2.3,0 3.8,-2.9 3.8,-6.3c0,-2.6 -1.8,-4.5 -4.9,-4.5a5.6,5.6 0 0 0 -5.8,5.7a3.2,3.2 0 0 0 0.8,2.3c0.2,0.3 0.3,0.4 0.2,0.7a3,3 0 0 0 -0.2,1a0.42,0.42 0 0 1 -0.6,0.3c-1.7,-0.7 -2.4,-2.5 -2.4,-4.5c0,-3.4 2.8,-7.4 8.5,-7.4c4.5,0 7.5,3.3 7.5,6.8c0,4.7 -2.6,8.1 -6.4,8.1a3.34,3.34 0 0 1 -2.9,-1.5s-0.7,2.7 -0.8,3.3a9.65,9.65 0 0 1 -1.2,2.5a12.7,12.7 0 0 0 3.4,0.5a11.86,11.86 0 0 0 11.9,-11.9a12.34,12.34 0 0 0 -12.2,-12z" class="cls-2"/>
 </g>
</svg>