<svg width="48" height="48" xmlns="http://www.w3.org/2000/svg">

 <g>
  <title>Layer 1</title>
  <circle id="svg_1" fill="#e44221" r="24" cy="24" cx="24" class="cls-1"/>
  <path id="svg_2" fill="#fff" d="m24.8,25.8c-0.7,-0.5 -2,-1.7 -2,-2.3c0,-0.8 0.2,-1.2 1.4,-2.2a5.13,5.13 0 0 0 2.1,-3.9a4.6,4.6 0 0 0 -2.4,-4.4l2.4,0l1.7,-1.2l-7.5,0c-3.4,0 -6.6,2.6 -6.6,5.5a5.47,5.47 0 0 0 5.7,5.5l0.7,0a3.26,3.26 0 0 0 -0.4,1.4a3.46,3.46 0 0 0 1,2.1l-1.3,0c-4.2,0 -7.4,2.7 -7.4,5.4s3.5,4.4 7.7,4.4c4.8,0 7.4,-2.7 7.4,-5.4a5,5 0 0 0 -2.5,-4.9zm-4.1,-3.69c-1.9,-0.1 -3.8,-2.2 -4.1,-4.7s1,-4.5 2.9,-4.4s3.8,2.1 4.1,4.7c0.36,2.4 -0.9,4.4 -2.9,4.4zm-0.74,12.89c-2.9,0 -5,-1.8 -5,-4s2.6,-4 5.5,-3.9a5.82,5.82 0 0 1 1.9,0.3c1.6,1.1 2.7,1.7 3,3a2.2,2.2 0 0 1 0.1,0.8c0.04,2 -1.5,3.8 -5.5,3.8z" class="cls-2"/>
  <polygon id="svg_3" fill="#fff" points="32.8 22.3 32.8 19.4 30.4 19.4 30.4 22.3 27.5 22.3 27.5 24.6 30.4 24.6 30.4 27.6 32.8 27.6 32.8 24.6 35.7 24.6 35.7 22.3 32.8 22.3" class="cls-2"/>
 </g>
</svg>