<svg width="48" height="48" xmlns="http://www.w3.org/2000/svg">

 <g>
  <title>Layer 1</title>
  <circle id="svg_1" fill="#1fb7eb" r="24" cy="24" cx="24" class="cls-1"/>
  <path id="svg_2" fill="#fff" d="m36.8,15.4a8,8 0 0 1 -3,0.9a5.57,5.57 0 0 0 2.3,-3.1a11.57,11.57 0 0 1 -3.4,1.4a5.1,5.1 0 0 0 -3.8,-1.8a5.5,5.5 0 0 0 -5.3,5.7a5.7,5.7 0 0 0 0.1,1.3a14.64,14.64 0 0 1 -10.9,-5.9a5.43,5.43 0 0 0 -0.7,2.9a5.69,5.69 0 0 0 2.3,4.7a4.81,4.81 0 0 1 -2.4,-0.7l0,0.1a5.73,5.73 0 0 0 4.2,5.6a5.9,5.9 0 0 1 -1.4,0.2a3.4,3.4 0 0 1 -1,-0.1a5.2,5.2 0 0 0 4.9,3.9a10.21,10.21 0 0 1 -6.5,2.4a6.15,6.15 0 0 1 -1.3,-0.1a14.21,14.21 0 0 0 8.1,2.6c9.7,0 15,-8.6 15,-16.1l0,-0.7a12,12 0 0 0 2.8,-3.2z" class="cls-2"/>
 </g>
</svg>