<svg width="48" height="48" xmlns="http://www.w3.org/2000/svg">

 <g>
  <title>Layer 1</title>
  <circle id="svg_1" fill="#ca3938" r="24" cy="24" cx="24" class="cls-1"/>
  <path id="svg_2" fill="#fff" d="m35.2,18.5a0.37,0.37 0 0 0 -0.1,-0.3l0,-0.1a2.16,2.16 0 0 0 -2.1,-1.5l0.2,0a67,67 0 0 0 -9.2,-0.6a68.9,68.9 0 0 0 -9.2,0.6l0.2,0a2.16,2.16 0 0 0 -2.1,1.5l0,0.1a0.37,0.37 0 0 1 -0.1,0.3a48.6,48.6 0 0 0 -0.4,5.5a48.6,48.6 0 0 0 0.4,5.5a0.37,0.37 0 0 0 0.1,0.3l0,0.1a2.16,2.16 0 0 0 2.1,1.5l-0.2,0a67,67 0 0 0 9.2,0.6a68.9,68.9 0 0 0 9.2,-0.6l-0.2,0a2.16,2.16 0 0 0 2.1,-1.5l0,-0.1a0.37,0.37 0 0 1 0.1,-0.3a48.6,48.6 0 0 0 0.4,-5.5a32.55,32.55 0 0 0 -0.4,-5.5zm-7.8,6l-4.7,3.4a0.5,0.5 0 0 1 -0.6,0a0.55,0.55 0 0 1 -0.3,-0.5l0,-6.75a0.55,0.55 0 0 1 0.3,-0.5a0.64,0.64 0 0 1 0.6,0l4.7,3.4a0.76,0.76 0 0 1 0.2,0.5a0.37,0.37 0 0 1 -0.2,0.45z" class="cls-2"/>
 </g>
</svg>