<svg width="71.33" height="25" xmlns="http://www.w3.org/2000/svg">

 <g>
  <title>Layer 1</title>
  <rect id="svg_1" fill="#3c3c3b" rx="7" height="25" width="71.33" class="cls-1"/>
  <text id="svg_2" font-family="ArialMT, Arial" fill="#fff" font-size="13.59px" transform="translate(23.78 17.67) scale(0.99 1)" class="cls-2">Docker</text>
  <path id="svg_3" fill-rule="evenodd" fill="#374649" d="m12.94,10.21l2,0l0,2l1,0a4.57,4.57 0 0 0 1.35,-0.22a4.82,4.82 0 0 0 0.66,-0.3a2.45,2.45 0 0 1 -0.46,-1.27a2.68,2.68 0 0 1 0.48,-1.89l0.21,-0.24l0.24,0.2a3.09,3.09 0 0 1 1.23,2a3,3 0 0 1 2.28,0.21l0.27,0.16l-0.14,0.28a2.85,2.85 0 0 1 -2.85,1.36c-1.7,4.23 -5.4,6.23 -9.89,6.23a6.2,6.2 0 0 1 -5.65,-2.92l0,0l-0.18,-0.36a5.73,5.73 0 0 1 -0.45,-2.89l0,-0.3l1.65,0l0,-2l2,0l0,-2l3.92,0l0,-2l2.36,0l0,3.93" class="cls-3"/>
  <path id="svg_4" fill="#229fc8" fill-rule="evenodd" d="m19.29,10.95a2.61,2.61 0 0 0 -1.11,-2.21a2.41,2.41 0 0 0 0.22,3a4.06,4.06 0 0 1 -2.52,0.81l-12.59,0a5.23,5.23 0 0 0 0.53,2.92l0.14,0.27a4.27,4.27 0 0 0 0.33,0.41c0.51,0 1,0 1.43,0l0,0a6.81,6.81 0 0 0 2.08,-0.31a0.15,0.15 0 0 1 0.19,0.1a0.14,0.14 0 0 1 -0.09,0.19l-0.22,0.07l0,0a6.2,6.2 0 0 1 -1.44,0.23l-0.1,0l-0.72,0l-0.85,0l0,0a6.17,6.17 0 0 0 4.72,1.96c4.35,0 8,-1.93 9.67,-6.26a2.61,2.61 0 0 0 2.78,-1.16a2.72,2.72 0 0 0 -2.44,0" class="cls-4"/>
  <path id="svg_5" fill="#3ab1da" fill-rule="evenodd" d="m19.29,10.95a2.61,2.61 0 0 0 -1.11,-2.21a2.41,2.41 0 0 0 0.22,3a4.06,4.06 0 0 1 -2.52,0.81l-11.82,0a4.09,4.09 0 0 0 1.65,3.67l0,0a6.81,6.81 0 0 0 2.08,-0.31a0.15,0.15 0 0 1 0.19,0.1a0.14,0.14 0 0 1 -0.09,0.19l-0.22,0.07l0,0a6.54,6.54 0 0 1 -1.48,0.24l0,0c1.48,0.76 3.62,0.75 6.08,-0.19a17.1,17.1 0 0 0 7.12,-5.39l-0.08,0" class="cls-5"/>
  <path id="svg_6" fill="#1c82a6" fill-rule="evenodd" d="m3.34,13.85a5,5 0 0 0 0.5,1.61l0.14,0.27a4.27,4.27 0 0 0 0.31,0.42c0.51,0 1,0 1.43,0a6.81,6.81 0 0 0 2.08,-0.31a0.15,0.15 0 0 1 0.19,0.1a0.14,0.14 0 0 1 -0.09,0.19l-0.22,0.07l0,0a7.15,7.15 0 0 1 -1.48,0.24l-0.07,0l-0.72,0l-0.86,0a6.19,6.19 0 0 0 4.74,1.95c3.72,0 7,-1.42 8.84,-4.54l-14.79,0" class="cls-6"/>
  <path id="svg_7" fill="#1e91b5" fill-rule="evenodd" d="m4.17,13.85a3.78,3.78 0 0 0 1.54,2.36a6.81,6.81 0 0 0 2.08,-0.31a0.15,0.15 0 0 1 0.19,0.1a0.14,0.14 0 0 1 -0.09,0.19l-0.22,0.07l0,0a7.25,7.25 0 0 1 -1.49,0.24c1.48,0.76 3.62,0.74 6.08,-0.2a16,16 0 0 0 4.21,-2.45l-12.3,0" class="cls-7"/>
  <path id="svg_8" fill="#26a3c3" fill-rule="evenodd" d="m5.02,10.53l1.7,0l0,1.71l-1.7,0l0,-1.71zm0.14,0.15l0.13,0l0,1.41l-0.14,0l0.01,-1.41zm0.26,0l0.14,0l0,1.41l-0.14,0l0,-1.41zm0.25,0l0.14,0l0,1.41l-0.14,0l0,-1.41zm0.26,0l0.14,0l0,1.41l-0.14,0l0,-1.41zm0.26,0l0.1,0l0,1.41l-0.1,0l0,-1.41zm0.26,0l0.13,0l0,1.41l-0.13,0l0,-1.41zm0.53,-2.11l1.71,0l0,1.7l-1.71,0l0,-1.7zm0.15,0.14l0.16,0l0,1.44l-0.13,0l-0.03,-1.44zm0.25,0l0.14,0l0,1.44l-0.14,0l0,-1.44zm0.26,0l0.14,0l0,1.44l-0.14,0l0,-1.44zm0.25,0l0.14,0l0,1.44l-0.14,0l0,-1.44zm0.26,0l0.14,0l0,1.44l-0.14,0l0,-1.44zm0.26,0l0.13,0l0,1.44l-0.13,0l0,-1.44z" class="cls-8"/>
  <path id="svg_9" fill="#37bbde" fill-rule="evenodd" d="m6.98,10.53l1.71,0l0,1.71l-1.71,0l0,-1.71zm0.15,0.15l0.16,0l0,1.41l-0.13,0l-0.03,-1.41zm0.25,0l0.14,0l0,1.41l-0.14,0l0,-1.41zm0.26,0l0.14,0l0,1.41l-0.14,0l0,-1.41zm0.25,0l0.14,0l0,1.41l-0.14,0l0,-1.41zm0.26,0l0.14,0l0,1.41l-0.14,0l0,-1.41zm0.26,0l0.13,0l0,1.41l-0.13,0l0,-1.41z" class="cls-9"/>
  <path id="svg_10" fill="#26a3c3" fill-rule="evenodd" d="m8.95,10.53l1.7,0l0,1.71l-1.7,0l0,-1.71zm0.14,0.15l0.13,0l0,1.41l-0.13,0l0,-1.41zm0.25,0l0.14,0l0,1.41l-0.14,0l0,-1.41zm0.26,0l0.14,0l0,1.41l-0.14,0l0,-1.41zm0.26,0l0.14,0l0,1.41l-0.14,0l0,-1.41zm0.25,0l0.18,0l0,1.41l-0.14,0l-0.04,-1.41zm0.26,0l0.14,0l0,1.41l-0.14,0l0,-1.41z" class="cls-8"/>
  <path id="svg_11" fill="#37bbde" fill-rule="evenodd" d="m8.95,8.57l1.7,0l0,1.7l-1.7,0l0,-1.7zm0.14,0.14l0.13,0l0,1.44l-0.13,0l0,-1.44zm0.25,0l0.14,0l0,1.44l-0.14,0l0,-1.44zm0.26,0l0.14,0l0,1.44l-0.14,0l0,-1.44zm0.26,0l0.14,0l0,1.44l-0.14,0l0,-1.44zm0.25,0l0.18,0l0,1.44l-0.14,0l-0.04,-1.44zm0.26,0l0.14,0l0,1.44l-0.14,0l0,-1.44zm0.54,1.82l1.7,0l0,1.71l-1.7,0l0,-1.71zm0.14,0.15l0.14,0l0,1.41l-0.14,0l0,-1.41zm0.25,0l0.14,0l0,1.41l-0.15,0l0.01,-1.41zm0.26,0l0.14,0l0,1.41l-0.14,0l0,-1.41zm0.26,0l0.14,0l0,1.41l-0.14,0l0,-1.41zm0.26,0l0.14,0l0,1.41l-0.14,0l0,-1.41zm0.26,0l0.13,0l0,1.41l-0.13,0l0,-1.41z" class="cls-9"/>
  <path id="svg_12" fill="#26a3c3" fill-rule="evenodd" d="m10.91,8.57l1.7,0l0,1.7l-1.7,0l0,-1.7zm0.14,0.14l0.14,0l0,1.44l-0.14,0l0,-1.44zm0.25,0l0.14,0l0,1.44l-0.15,0l0.01,-1.44zm0.26,0l0.14,0l0,1.44l-0.14,0l0,-1.44zm0.26,0l0.14,0l0,1.44l-0.14,0l0,-1.44zm0.26,0l0.14,0l0,1.44l-0.14,0l0,-1.44zm0.26,0l0.13,0l0,1.44l-0.13,0l0,-1.44z" class="cls-8"/>
  <path id="svg_13" fill="#37bbde" fill-rule="evenodd" d="m10.91,6.61l1.7,0l0,1.7l-1.7,0l0,-1.7zm0.14,0.14l0.14,0l0,1.4l-0.14,0l0,-1.4zm0.25,0l0.14,0l0,1.4l-0.15,0l0,-1.4l0.01,0zm0.26,0l0.14,0l0,1.4l-0.14,0l0,-1.4zm0.26,0l0.14,0l0,1.4l-0.14,0l0,-1.4zm0.26,0l0.14,0l0,1.4l-0.14,0l0,-1.4zm0.26,0l0.13,0l0,1.4l-0.13,0l0,-1.4z" class="cls-9"/>
  <path id="svg_14" fill="#26a3c3" fill-rule="evenodd" d="m12.87,10.53l1.7,0l0,1.71l-1.7,0l0,-1.71zm0.14,0.15l0.14,0l0,1.41l-0.14,0l0,-1.41zm0.26,0l0.14,0l0,1.41l-0.12,0l0,-1.41l-0.02,0zm0.25,0l0.14,0l0,1.41l-0.14,0l0,-1.41zm0.26,0l0.14,0l0,1.41l-0.14,0l0,-1.41zm0.26,0l0.14,0l0,1.41l-0.14,0l0,-1.41zm0.26,0l0.13,0l0,1.41l-0.14,0l0.01,-1.41z" class="cls-8"/>
  <path id="svg_15" fill="#d4ebec" fill-rule="evenodd" d="m8.58,14.99a0.47,0.47 0 0 1 0.47,0.47a0.45,0.45 0 0 1 -0.46,0.47l0,0a0.45,0.45 0 0 1 -0.46,-0.47a0.47,0.47 0 0 1 0.46,-0.47" class="cls-10"/>
  <path id="svg_16" fill-rule="evenodd" fill="#374649" d="m8.58,15.15l0.12,0a0.14,0.14 0 0 0 0,0.19a0.15,0.15 0 0 0 0.12,0.07a0.13,0.13 0 0 0 0.12,-0.08a0.33,0.33 0 0 1 -0.18,0.44a0.34,0.34 0 1 1 -0.26,-0.62l0.13,0m-8.34,-1.13l21.82,0c-0.48,-0.12 -1.5,-0.28 -1.34,-0.9c-0.86,1 -2.94,0.7 -3.47,0.2c-0.59,0.85 -4,0.53 -4.23,-0.13a3,3 0 0 1 -3.78,-0.04c-0.24,0.66 -3.65,1 -4.23,0.13c-0.53,0.5 -2.61,0.8 -3.48,-0.2c0.17,0.62 -0.86,0.78 -1.33,0.9" class="cls-3"/>
  <path id="svg_17" fill="#bdd8d7" fill-rule="evenodd" d="m9.83,18.38a4.2,4.2 0 0 1 -2.16,-2.12a7.16,7.16 0 0 1 -1.55,0.23l-0.72,0l-0.91,0a6.22,6.22 0 0 0 4.8,1.9l0.54,0" class="cls-11"/>
  <path id="svg_18" fill="#d4ebec" fill-rule="evenodd" d="m8.1,17.01a4.57,4.57 0 0 1 -0.43,-0.75a7.16,7.16 0 0 1 -1.55,0.23a4.71,4.71 0 0 0 2,0.52" class="cls-10"/>
 </g>
</svg>