<svg width="70.68" height="25" xmlns="http://www.w3.org/2000/svg" data-name="Layer 4">

 <g>
  <title>Layer 1</title>
  <rect id="svg_1" fill="#3c3c3b" rx="7" height="25" width="70.68" class="cls-1"/>
  <text id="svg_2" fill="#fff" font-family="ArialMT, Arial" font-size="13.59px" transform="translate(23.78 17.67) scale(0.99 1)" class="cls-2">HTML5</text>
  <path id="svg_3" fill="#e44e28" d="m5.84,20.32l-1.42,-15.91l15.59,0l-1.42,15.9l-6.41,1.77" class="cls-3"/>
  <path id="svg_4" fill="#ec662b" d="m12.18,20.73l0,-15l6.4,0l-1.21,13.56" class="cls-4"/>
  <path id="svg_5" fill="#ebebeb" d="m7.32,7.66l4.86,0l0,1.95l-2.72,0l0.18,2l2.54,0l0,1.94l-4.33,0m0.09,1l2,0l0.13,1.56l2.19,0.59l0,2l-4,-1.12" class="cls-5"/>
  <path id="svg_6" fill="#fff" d="m17.09,7.66l-4.91,0l0,1.95l4.7,0m-0.17,2l-4.53,0l0,1.95l2.4,0l-0.23,2.53l-2.17,0.59l0,2l4,-1.11" class="cls-6"/>
 </g>
</svg>