<svg width="115.9" height="25" xmlns="http://www.w3.org/2000/svg" data-name="Android Studio">

 <g>
  <title>Layer 1</title>
  <rect id="svg_1" fill="#3c3c3b" rx="7" height="25" width="115.9" class="cls-1"/>
  <text id="svg_2" fill="#fff" font-family="ArialMT, Arial" font-size="13.59px" transform="translate(24.3 17.67) scale(0.99 1)" class="cls-2">Android Studio</text>
  <path id="svg_3" fill="#093042" d="m10.67,5.8l-4.24,0a1.56,1.56 0 0 0 -1.56,1.57a1.53,1.53 0 0 0 1.47,1.56l4.38,0l-0.05,-3.13z" class="cls-3"/>
  <path id="svg_4" fill="#517cbe" d="m20.34,19.68l-13.91,0a1.58,1.58 0 0 1 -1.56,-1.56l0,-10.75a1.57,1.57 0 0 0 1.56,1.57l11.64,0s2.27,-0.2 2.27,1.51l0,9.23z" class="cls-4"/>
  <path id="svg_5" fill="#010101" d="m13.02,12.19a0.86,0.86 0 0 0 -0.84,0.87a0.85,0.85 0 0 0 0.87,0.85a0.86,0.86 0 0 0 0.85,-0.88a0.8,0.8 0 0 0 -0.06,-0.3a0.87,0.87 0 0 0 -0.82,-0.54z" class="cls-5"/>
  <path id="svg_6" fill="#3871b3" d="m13.85,14.16a1.4,1.4 0 0 0 0.28,-2a1.41,1.41 0 0 0 -1.11,-0.52l0.29,0l0,-0.86a0.3,0.3 0 0 0 -0.13,-0.25a0.28,0.28 0 0 0 -0.28,0a0.3,0.3 0 0 0 -0.13,0.25l0,0.88a1.4,1.4 0 0 0 -1.14,1.61a1.45,1.45 0 0 0 0.55,0.91l-2.56,5.48l1.67,0l1.19,-2.52a0.61,0.61 0 0 1 1.1,0l1.22,2.52l1.69,0l-2.64,-5.5zm-0.83,-0.25a0.86,0.86 0 0 1 -0.87,-0.86a0.86,0.86 0 0 1 0.87,-0.87a0.86,0.86 0 0 1 0.88,0.86l0,0a0.86,0.86 0 0 1 -0.87,0.86l-0.01,0.01z" class="cls-6"/>
  <path id="svg_7" fill="#fff" d="m9.76,6.56l6,0l0,1.1l-6,0l0,-1.1z" class="cls-7"/>
  <path id="svg_8" fill="#093042" d="m12.53,12.19a0.85,0.85 0 0 1 0.85,0.86a0.86,0.86 0 0 1 -0.87,0.86a0.86,0.86 0 0 1 -0.85,-0.87a0.86,0.86 0 0 1 0.25,-0.6a0.9,0.9 0 0 1 0.62,-0.25zm0.34,-0.51l0,-0.9a0.3,0.3 0 0 0 -0.13,-0.25a0.28,0.28 0 0 0 -0.28,0a0.26,0.26 0 0 0 -0.13,0.25l0,0.88a1.4,1.4 0 0 0 -1.17,1.61a1.45,1.45 0 0 0 0.55,0.91l-3.21,6.92a0.76,0.76 0 0 0 0.75,1.1a0.75,0.75 0 0 0 0.63,-0.45l2.14,-4.61a0.63,0.63 0 0 1 0.56,-0.35a0.62,0.62 0 0 1 0.55,0.35l2.2,4.58a0.76,0.76 0 0 0 1,0.36a0.77,0.77 0 0 0 0.36,-1l0,0l-3.32,-6.9a1.41,1.41 0 0 0 0.23,-2a1.45,1.45 0 0 0 -0.73,-0.48" class="cls-3"/>
  <path id="svg_9" fill="#65b97c" d="m14.84,7.53a0.41,0.41 0 0 1 -0.41,-0.4a0.38,0.38 0 0 1 0.12,-0.29a0.41,0.41 0 0 1 0.58,0a0.44,0.44 0 0 1 0.12,0.28a0.4,0.4 0 0 1 -0.4,0.41l0,0m-4.47,0a0.4,0.4 0 0 1 -0.41,-0.4a0.38,0.38 0 0 1 0.12,-0.29a0.4,0.4 0 0 1 0.57,-0.06a0.4,0.4 0 0 1 0.06,0.57l-0.07,0.02a0.38,0.38 0 0 1 -0.28,0.12m4.65,-2.41l0.81,-1.4a0.18,0.18 0 0 0 -0.1,-0.22a0.17,0.17 0 0 0 -0.2,0.05l-0.81,1.42a5.11,5.11 0 0 0 -4.16,0l-0.82,-1.42a0.18,0.18 0 0 0 -0.15,-0.08a0.18,0.18 0 0 0 -0.15,0.08a0.17,0.17 0 0 0 0,0.17l0.81,1.4a4.78,4.78 0 0 0 -2.47,3.84l9.72,0a4.79,4.79 0 0 0 -2.48,-3.84" class="cls-8"/>
  <path id="svg_10" fill="#093042" d="m18.94,11.9l-0.64,0a0.09,0.09 0 0 0 -0.08,0.09l0,0l0,10.1a0.08,0.08 0 0 0 0.07,0.08l0.66,0a1.4,1.4 0 0 0 1.4,-1.4l0,-10.27a1.4,1.4 0 0 1 -1.4,1.4l0,0l-0.01,0z" class="cls-3"/>
 </g>
</svg>