<svg width="70.5" height="25.5" xmlns="http://www.w3.org/2000/svg">
 <defs>
  <linearGradient y2="0.89337" x2="0.63033" y1="0.2561" x1="-0.11301" id="linear-gradient">
   <stop stop-color="#5ca0d5" offset="0"/>
   <stop stop-color="#316a99" offset="1"/>
  </linearGradient>
  <linearGradient y2="0.56171" x2="0.30184" y1="0.93531" x1="0.56783" id="linear-gradient-2">
   <stop stop-color="#ffd43e" offset="0"/>
   <stop stop-color="#ffe975" offset="1"/>
  </linearGradient>
  <radialGradient gradientUnits="userSpaceOnUse" gradientTransform="matrix(0, -0.24, 1.06, 0, -541.96, -816.66)" r="4.66" cy="525.35" cx="-3455.08" id="radial-gradient">
   <stop stop-opacity="0.5" stop-color="#b8b8b8" offset="0"/>
   <stop stop-opacity="0" stop-color="#7f8080" offset="1"/>
  </radialGradient>
 </defs>
 <g>
  <title>Layer 1</title>
  <rect id="svg_1" fill="#3c3c3b" rx="7" height="25" width="70.5" class="cls-1"/>
  <path fill="url(#linear-gradient)" d="m13.34,3.58a11.79,11.79 0 0 0 -2.06,0.18c-1.82,0.33 -2.16,1 -2.16,2.27l0,1.66l4.32,0l0,0.55l-5.94,0a2.73,2.73 0 0 0 -2.71,2.22a8.23,8.23 0 0 0 0,4.43c0.31,1.28 1,2.21 2.29,2.21l1.48,0l0,-2a2.77,2.77 0 0 1 2.7,-2.72l4.32,0a2.18,2.18 0 0 0 2.15,-2.22l0,-4.16a2.42,2.42 0 0 0 -2.15,-2.27a12.09,12.09 0 0 0 -2.24,-0.15zm-2.34,1.31a0.81,0.81 0 0 1 0.8,0.83a0.81,0.81 0 1 1 -1.61,0a0.81,0.81 0 0 1 0.81,-0.83z" class="cls-2" id="path1948"/>
  <path fill="url(#linear-gradient-2)" d="m18.28,8.21l0,1.94a2.78,2.78 0 0 1 -2.7,2.77l-4.32,0a2.22,2.22 0 0 0 -2.15,2.21l0,4.16c0,1.19 1,1.87 2.15,2.21a7.14,7.14 0 0 0 4.32,0c1.09,-0.32 2.15,-1 2.15,-2.21l0,-1.65l-4.29,0l0,-0.55l6.47,0c1.25,0 1.72,-0.88 2.15,-2.22a7.49,7.49 0 0 0 0,-4.43c-0.3,-1.27 -0.9,-2.21 -2.15,-2.21l-1.63,-0.02zm-2.43,10.54a0.83,0.83 0 0 1 0,1.66a0.83,0.83 0 0 1 0,-1.66z" class="cls-3" id="path1950"/>
  <ellipse fill="url(#radial-gradient)" opacity="0.44" isolation="isolate" ry="1.14" rx="5.78" cy="24.36" cx="13.49" class="cls-4" id="path1894"/>
  <text id="svg_2" font-family="ArialMT, Arial" fill="#fff" font-size="13.59px" transform="translate(24.79 17.67) scale(0.99 1)" class="cls-5">Python</text>
 </g>
</svg>
