<svg width="68.19" height="25" xmlns="http://www.w3.org/2000/svg">
 <defs>
  <linearGradient y2="0.94506" x2="0.50817" y1="0.01608" x1="0.50817" id="linear-gradient">
   <stop stop-color="#98d6f4" offset="0"/>
   <stop stop-color="#207fc2" offset="0.92"/>
   <stop stop-color="#207fc2" offset="1"/>
  </linearGradient>
 </defs>
 <g>
  <title>Layer 1</title>
  <rect id="svg_1" fill="#3c3c3b" rx="7" height="25" width="68.19" class="cls-1"/>
  <text id="svg_2" font-family="ArialMT, Arial" fill="#fff" font-size="13.59px" transform="translate(23.78 17.67) scale(0.99 1)" class="cls-2">SQLite</text>
  <path fill="#207fc2" d="m18.07,4.47l-12.73,0a1.55,1.55 0 0 0 -1.55,1.55l0,14.05a1.55,1.55 0 0 0 1.55,1.55l8.39,0c-0.06,-4.18 1.33,-12.28 4.34,-17.15z" class="cls-3" id="solid-background"/>
  <path fill="url(#linear-gradient)" d="m17.61,4.92l-12.27,0a1.1,1.1 0 0 0 -1.1,1.1l0,13a30.14,30.14 0 0 1 9.83,-1.94a89.65,89.65 0 0 1 3.54,-12.16z" class="cls-4" id="gradient-background"/>
  <path fill="#003b56" d="m21.05,4.01c-0.88,-0.78 -1.93,-0.47 -3,0.46l-0.46,0.45a18.41,18.41 0 0 0 -3.92,8.07a7.43,7.43 0 0 1 0.45,1.29c0,0.1 0,0.2 0.07,0.28l0.07,0.32l-0.08,-0.25s0,-0.08 0,-0.13a0.14,0.14 0 0 0 0,-0.06c-0.12,-0.27 -0.44,-0.85 -0.58,-1.09c-0.13,0.35 -0.23,0.69 -0.32,1a8.81,8.81 0 0 1 0.66,2l-0.13,-0.37a11.91,11.91 0 0 0 -0.65,-1.24a2.75,2.75 0 0 0 -0.19,1.25a4.07,4.07 0 0 1 0.35,1a20.4,20.4 0 0 1 0.35,2.11s0,0.08 0,0.2a19.73,19.73 0 0 0 0.05,2.32a8.4,8.4 0 0 0 0.42,2.25l0.13,-0.08a10,10 0 0 1 -0.35,-3.35a25.8,25.8 0 0 1 1.41,-7c1.46,-3.85 3.48,-6.94 5.33,-8.41c-1.69,1.52 -4,6.45 -4.65,8.27a33.32,33.32 0 0 0 -1.64,5.8a4.52,4.52 0 0 1 2.39,-2.46s0.91,-1.12 1.91,-2.7c-0.63,0.15 -1.66,0.39 -2,0.53l-0.65,0.29a17.89,17.89 0 0 1 3.1,-1.48c1.94,-3.05 4,-7.39 1.93,-9.29" class="cls-5" id="feather"/>
 </g>
</svg>
