<svg width="54.07" height="25" xmlns="http://www.w3.org/2000/svg">

 <g>
  <title>Layer 1</title>
  <rect id="svg_1" fill="#3c3c3b" rx="7" height="25" width="54.07" class="cls-1"/>
  <polygon fill="#3655a2" points="20.02 4.37 18.6 20.31 12.2 22.08 5.83 20.31 4.4 4.37 20.02 4.37" class="cls-2" id="polygon2989"/>
  <polygon fill="#3c61ab" points="17.38 19.29 18.59 5.67 12.21 5.67 12.21 20.72 17.38 19.29" class="cls-3" id="polygon2991"/>
  <polygon fill="#ebebeb" points="7.66 11.58 7.84 13.54 12.21 13.54 12.21 11.58 7.66 11.58" class="cls-4" id="polygon2993"/>
  <polygon fill="#ebebeb" points="12.21 7.63 12.21 7.63 7.31 7.63 7.49 9.58 12.21 9.58 12.21 7.63" class="cls-4" id="polygon2995"/>
  <polygon fill="#ebebeb" points="12.21 18.7 12.21 16.66 12.2 16.66 10.03 16.07 9.89 14.52 8.83 14.52 7.92 14.52 8.2 17.59 12.2 18.7 12.21 18.7" class="cls-4" id="polygon2997"/>
  <polygon fill="#fff" points="14.61 13.54 14.38 16.07 12.21 16.66 12.21 18.7 16.21 17.59 16.24 17.26 16.7 12.11 16.75 11.58 17.1 7.63 12.21 7.63 12.21 9.58 14.96 9.58 14.78 11.58 12.21 11.58 12.21 13.54 14.61 13.54" class="cls-5" id="polygon3005"/>
  <text id="svg_2" font-family="ArialMT, Arial" font-size="13.59px" fill="#fff" transform="translate(23.78 17.67) scale(0.99 1)" class="cls-6">CSS</text>
 </g>
</svg>