<svg width="78" height="26" viewBox="0 0 78 26" fill="none" xmlns="http://www.w3.org/2000/svg">
<rect width="78" height="26" rx="8" fill="#3C3C3B"/>
<g clip-path="url(#clip0_25_704)">
<path d="M29.5284 18.1199C28.9691 18.1199 28.4625 17.976 28.0087 17.6884C27.5581 17.3975 27.2001 16.9709 26.9348 16.4084C26.6728 15.8427 26.5417 15.1491 26.5417 14.3278C26.5417 13.484 26.6776 12.7825 26.9492 12.2232C27.2209 11.6607 27.582 11.2404 28.0327 10.9624C28.4865 10.6811 28.9835 10.5405 29.5236 10.5405C29.9359 10.5405 30.2795 10.6108 30.5543 10.7514C30.8324 10.8888 31.0561 11.0614 31.2255 11.2692C31.3981 11.4737 31.5291 11.6751 31.6186 11.8732H31.6809V8.18182H33.7184V18H31.7049V16.8207H31.6186C31.5227 17.0252 31.3869 17.2282 31.2111 17.4295C31.0385 17.6277 30.8132 17.7923 30.5352 17.9233C30.2603 18.0543 29.9247 18.1199 29.5284 18.1199ZM30.1756 16.4947C30.5048 16.4947 30.7828 16.4052 31.0098 16.2262C31.2399 16.044 31.4157 15.79 31.5371 15.464C31.6618 15.138 31.7241 14.756 31.7241 14.3182C31.7241 13.8803 31.6634 13.5 31.5419 13.1772C31.4205 12.8544 31.2447 12.6051 31.0146 12.4293C30.7844 12.2536 30.5048 12.1657 30.1756 12.1657C29.84 12.1657 29.5572 12.2567 29.3271 12.4389C29.0969 12.6211 28.9228 12.8736 28.8045 13.1964C28.6863 13.5192 28.6271 13.8931 28.6271 14.3182C28.6271 14.7464 28.6863 15.1252 28.8045 15.4544C28.926 15.7804 29.1001 16.036 29.3271 16.2214C29.5572 16.4036 29.84 16.4947 30.1756 16.4947ZM35.3975 18V10.6364H37.3774V11.9212H37.4541C37.5884 11.4641 37.8137 11.119 38.1301 10.8857C38.4465 10.6491 38.8109 10.5309 39.2231 10.5309C39.3254 10.5309 39.4357 10.5373 39.5539 10.5501C39.6722 10.5629 39.7761 10.5804 39.8655 10.6028V12.415C39.7697 12.3862 39.637 12.3606 39.4676 12.3382C39.2983 12.3159 39.1432 12.3047 39.0026 12.3047C38.7022 12.3047 38.4337 12.3702 38.1972 12.5012C37.9639 12.6291 37.7785 12.8081 37.6411 13.0382C37.5069 13.2683 37.4398 13.5336 37.4398 13.834V18H35.3975ZM42.8103 18.139C42.3405 18.139 41.9218 18.0575 41.5542 17.8945C41.1867 17.7283 40.8959 17.4838 40.6817 17.161C40.4708 16.835 40.3653 16.4292 40.3653 15.9434C40.3653 15.5343 40.4404 15.1907 40.5906 14.9126C40.7409 14.6346 40.9454 14.4109 41.2043 14.2415C41.4632 14.0721 41.7572 13.9442 42.0864 13.858C42.4188 13.7717 42.7671 13.7109 43.1315 13.6758C43.5597 13.631 43.9049 13.5895 44.167 13.5511C44.4291 13.5096 44.6192 13.4489 44.7375 13.369C44.8557 13.2891 44.9149 13.1708 44.9149 13.0142V12.9854C44.9149 12.6818 44.819 12.4469 44.6272 12.2807C44.4387 12.1145 44.1702 12.0314 43.8218 12.0314C43.4543 12.0314 43.1618 12.1129 42.9445 12.2759C42.7272 12.4357 42.5834 12.6371 42.5131 12.88L40.6242 12.7266C40.7201 12.2791 40.9086 11.8924 41.1899 11.5664C41.4711 11.2372 41.8339 10.9847 42.2781 10.8089C42.7256 10.63 43.2433 10.5405 43.8314 10.5405C44.2405 10.5405 44.632 10.5884 45.0059 10.6843C45.3831 10.7802 45.7171 10.9288 46.0079 11.1301C46.3019 11.3315 46.5336 11.5904 46.703 11.9068C46.8724 12.22 46.9571 12.5955 46.9571 13.0334V18H45.0203V16.9789H44.9628C44.8445 17.209 44.6863 17.4119 44.4882 17.5877C44.29 17.7603 44.0519 17.8961 43.7739 17.9952C43.4958 18.0911 43.1746 18.139 42.8103 18.139ZM43.3952 16.7296C43.6956 16.7296 43.9608 16.6705 44.191 16.5522C44.4211 16.4308 44.6017 16.2678 44.7327 16.0632C44.8637 15.8587 44.9292 15.627 44.9292 15.3681V14.5866C44.8653 14.6282 44.7774 14.6665 44.6656 14.7017C44.5569 14.7337 44.4339 14.764 44.2964 14.7928C44.159 14.8184 44.0216 14.8423 43.8841 14.8647C43.7467 14.8839 43.6221 14.9015 43.5102 14.9174C43.2705 14.9526 43.0612 15.0085 42.8822 15.0852C42.7032 15.1619 42.5642 15.2658 42.4651 15.3968C42.366 15.5247 42.3165 15.6845 42.3165 15.8762C42.3165 16.1543 42.4172 16.3668 42.6185 16.5138C42.8231 16.6577 43.0819 16.7296 43.3952 16.7296ZM49.9941 18L47.9902 10.6364H50.0565L51.1974 15.5838H51.2646L52.4535 10.6364H54.4814L55.6895 15.555H55.7518L56.8736 10.6364H58.935L56.9359 18H54.7738L53.5082 13.369H53.4171L52.1515 18H49.9941ZM60.2162 18.1246C59.8998 18.1246 59.6282 18.0128 59.4012 17.7891C59.1775 17.5621 59.0657 17.2905 59.0657 16.9741C59.0657 16.6609 59.1775 16.3924 59.4012 16.1687C59.6282 15.945 59.8998 15.8331 60.2162 15.8331C60.523 15.8331 60.7915 15.945 61.0216 16.1687C61.2517 16.3924 61.3668 16.6609 61.3668 16.9741C61.3668 17.185 61.3125 17.3784 61.2038 17.5542C61.0983 17.7267 60.9593 17.8658 60.7867 17.9712C60.6141 18.0735 60.424 18.1246 60.2162 18.1246ZM63.0435 18V10.6364H65.0858V18H63.0435ZM64.0694 9.68714C63.7658 9.68714 63.5053 9.58647 63.288 9.38512C63.0739 9.18057 62.9668 8.93608 62.9668 8.65163C62.9668 8.37038 63.0739 8.12908 63.288 7.92773C63.5053 7.72319 63.7658 7.62092 64.0694 7.62092C64.373 7.62092 64.6319 7.72319 64.8461 7.92773C65.0634 8.12908 65.1721 8.37038 65.1721 8.65163C65.1721 8.93608 65.0634 9.18057 64.8461 9.38512C64.6319 9.58647 64.373 9.68714 64.0694 9.68714ZM70.0488 18.1438C69.3041 18.1438 68.6601 17.9856 68.1168 17.6692C67.5767 17.3496 67.1596 16.9054 66.8655 16.3365C66.5715 15.7644 66.4245 15.1012 66.4245 14.3469C66.4245 13.5863 66.5715 12.9215 66.8655 12.3526C67.1596 11.7805 67.5767 11.3363 68.1168 11.0199C68.6601 10.7003 69.3041 10.5405 70.0488 10.5405C70.7935 10.5405 71.4359 10.7003 71.976 11.0199C72.5193 11.3363 72.938 11.7805 73.232 12.3526C73.5261 12.9215 73.6731 13.5863 73.6731 14.3469C73.6731 15.1012 73.5261 15.7644 73.232 16.3365C72.938 16.9054 72.5193 17.3496 71.976 17.6692C71.4359 17.9856 70.7935 18.1438 70.0488 18.1438ZM70.0584 16.5618C70.3972 16.5618 70.68 16.4659 70.9069 16.2741C71.1338 16.0792 71.3048 15.8139 71.4199 15.4783C71.5381 15.1428 71.5973 14.7608 71.5973 14.3326C71.5973 13.9043 71.5381 13.5224 71.4199 13.1868C71.3048 12.8512 71.1338 12.5859 70.9069 12.391C70.68 12.196 70.3972 12.0985 70.0584 12.0985C69.7164 12.0985 69.4288 12.196 69.1954 12.391C68.9653 12.5859 68.7911 12.8512 68.6729 13.1868C68.5578 13.5224 68.5003 13.9043 68.5003 14.3326C68.5003 14.7608 68.5578 15.1428 68.6729 15.4783C68.7911 15.8139 68.9653 16.0792 69.1954 16.2741C69.4288 16.4659 69.7164 16.5618 70.0584 16.5618Z" fill="white"/>
</g>
<g clip-path="url(#clip1_25_704)">
<rect x="4" y="4" width="18" height="18" rx="5" fill="white"/>
<path d="M22 21.2314C22 21.6658 21.6436 22 21.2314 22H4.76856C4.33416 22 4 21.6436 4 21.2314V4.76856C4 4.33416 4.35644 4 4.76856 4H21.2314C21.6658 4 22 4.35644 22 4.76856V21.2314Z" fill="#F08705"/>
<path d="M22 21.2314C22 21.6658 21.6435 22 21.2314 22H10.1596L6.573 18.3577L8.80072 14.7154L15.4171 6.49506L21.9777 13.2562L22 21.2314Z" fill="#DF6C0C"/>
<path d="M18.7809 14.0582H16.8874L14.8824 10.6497C15.328 10.5606 15.6621 10.1597 15.6621 9.69183V7.11881C15.6621 6.57302 15.2277 6.13861 14.6819 6.13861H11.3403C10.7946 6.13861 10.3601 6.57302 10.3601 7.11881V9.69183C10.3601 10.1708 10.6943 10.5606 11.1287 10.6497L9.12376 14.0693H7.2302C6.68441 14.0693 6.25 14.5037 6.25 15.0495V17.6225C6.25 18.1683 6.68441 18.6027 7.2302 18.6027H10.5718C11.1176 18.6027 11.552 18.1683 11.552 17.6225V15.0495C11.552 14.5037 11.1176 14.0693 10.5718 14.0693H10.2488L12.2314 10.6832H13.7797L15.7735 14.0693H15.4394C14.8936 14.0693 14.4592 14.5037 14.4592 15.0495V17.6225C14.4592 18.1683 14.8936 18.6027 15.4394 18.6027H18.7809C19.3267 18.6027 19.7611 18.1683 19.7611 17.6225V15.0495C19.7611 14.5037 19.3267 14.0582 18.7809 14.0582Z" fill="white"/>
</g>
<defs>
<clipPath id="clip0_25_704">
<rect width="52" height="26" fill="white" transform="translate(26)"/>
</clipPath>
<clipPath id="clip1_25_704">
<rect x="4" y="4" width="18" height="18" rx="5" fill="white"/>
</clipPath>
</defs>
</svg>
