<svg width="84" height="26" viewBox="0 0 84 26" fill="none" xmlns="http://www.w3.org/2000/svg">
<rect width="83" height="26" rx="8" fill="#3C3C3B"/>
<g clip-path="url(#clip0_26_797)">
<path d="M25.8533 18V8.18182H32.4691V9.89329H27.9292V12.2328H32.1287V13.9442H27.9292V16.2885H32.4883V18H25.8533ZM36.1234 8.18182V18H34.0811V8.18182H36.1234ZM41.1151 18.1438C40.3577 18.1438 39.7057 17.9904 39.1592 17.6836C38.6159 17.3736 38.1972 16.9357 37.9031 16.37C37.6091 15.8011 37.4621 15.1284 37.4621 14.3517C37.4621 13.5943 37.6091 12.9295 37.9031 12.3574C38.1972 11.7853 38.6111 11.3395 39.1448 11.0199C39.6817 10.7003 40.3113 10.5405 41.0336 10.5405C41.5194 10.5405 41.9717 10.6188 42.3904 10.7754C42.8122 10.9288 43.1798 11.1605 43.493 11.4705C43.8094 11.7805 44.0555 12.1705 44.2313 12.6403C44.407 13.1069 44.4949 13.6534 44.4949 14.2798V14.8407H38.2771V13.5751H42.5725C42.5725 13.2811 42.5086 13.0206 42.3808 12.7937C42.2529 12.5668 42.0756 12.3894 41.8486 12.2615C41.6249 12.1305 41.3644 12.065 41.0672 12.065C40.7572 12.065 40.4823 12.1369 40.2426 12.2807C40.0061 12.4213 39.8208 12.6115 39.6865 12.8512C39.5523 13.0877 39.4836 13.3514 39.4804 13.6422V14.8455C39.4804 15.2099 39.5475 15.5247 39.6817 15.79C39.8192 16.0552 40.0125 16.2598 40.2618 16.4036C40.5111 16.5474 40.8067 16.6193 41.1487 16.6193C41.3756 16.6193 41.5834 16.5874 41.7719 16.5234C41.9605 16.4595 42.1219 16.3636 42.2561 16.2358C42.3904 16.108 42.4926 15.9513 42.5629 15.766L44.4518 15.8906C44.3559 16.3445 44.1594 16.7408 43.8621 17.0795C43.5681 17.4151 43.1878 17.6772 42.7211 17.8658C42.2577 18.0511 41.7224 18.1438 41.1151 18.1438ZM45.8277 18V10.6364H47.7741V11.9355H47.8604C48.0138 11.5041 48.2694 11.1637 48.6274 10.9144C48.9854 10.6651 49.4136 10.5405 49.9122 10.5405C50.4172 10.5405 50.847 10.6667 51.2018 10.9192C51.5566 11.1685 51.7931 11.5073 51.9113 11.9355H51.988C52.1382 11.5137 52.4099 11.1765 52.803 10.924C53.1993 10.6683 53.6675 10.5405 54.2077 10.5405C54.8948 10.5405 55.4525 10.7594 55.8808 11.1973C56.3122 11.6319 56.528 12.2488 56.528 13.0478V18H54.4905V13.4505C54.4905 13.0414 54.3818 12.7346 54.1645 12.53C53.9472 12.3255 53.6755 12.2232 53.3495 12.2232C52.9788 12.2232 52.6895 12.3414 52.4818 12.5779C52.2741 12.8113 52.1702 13.1197 52.1702 13.5032V18H50.1903V13.4073C50.1903 13.0462 50.0864 12.7585 49.8786 12.5444C49.6741 12.3303 49.404 12.2232 49.0684 12.2232C48.8415 12.2232 48.637 12.2807 48.4548 12.3958C48.2758 12.5076 48.1336 12.6658 48.0281 12.8704C47.9227 13.0717 47.8699 13.3082 47.8699 13.5799V18H45.8277ZM61.497 18.1438C60.7395 18.1438 60.0875 17.9904 59.541 17.6836C58.9977 17.3736 58.579 16.9357 58.285 16.37C57.9909 15.8011 57.8439 15.1284 57.8439 14.3517C57.8439 13.5943 57.9909 12.9295 58.285 12.3574C58.579 11.7853 58.9929 11.3395 59.5266 11.0199C60.0636 10.7003 60.6932 10.5405 61.4155 10.5405C61.9013 10.5405 62.3535 10.6188 62.7722 10.7754C63.1941 10.9288 63.5616 11.1605 63.8748 11.4705C64.1912 11.7805 64.4373 12.1705 64.6131 12.6403C64.7889 13.1069 64.8768 13.6534 64.8768 14.2798V14.8407H58.6589V13.5751H62.9544C62.9544 13.2811 62.8904 13.0206 62.7626 12.7937C62.6348 12.5668 62.4574 12.3894 62.2305 12.2615C62.0067 12.1305 61.7463 12.065 61.449 12.065C61.139 12.065 60.8642 12.1369 60.6245 12.2807C60.388 12.4213 60.2026 12.6115 60.0684 12.8512C59.9341 13.0877 59.8654 13.3514 59.8622 13.6422V14.8455C59.8622 15.2099 59.9293 15.5247 60.0636 15.79C60.201 16.0552 60.3944 16.2598 60.6436 16.4036C60.8929 16.5474 61.1886 16.6193 61.5305 16.6193C61.7575 16.6193 61.9652 16.5874 62.1538 16.5234C62.3423 16.4595 62.5037 16.3636 62.638 16.2358C62.7722 16.108 62.8745 15.9513 62.9448 15.766L64.8336 15.8906C64.7377 16.3445 64.5412 16.7408 64.244 17.0795C63.9499 17.4151 63.5696 17.6772 63.103 17.8658C62.6396 18.0511 62.1042 18.1438 61.497 18.1438ZM68.2518 13.7429V18H66.2095V10.6364H68.1559V11.9355H68.2422C68.4052 11.5073 68.6784 11.1685 69.062 10.9192C69.4455 10.6667 69.9105 10.5405 70.457 10.5405C70.9684 10.5405 71.4142 10.6523 71.7946 10.8761C72.1749 11.0998 72.4705 11.4194 72.6815 11.8349C72.8924 12.2472 72.9979 12.7393 72.9979 13.3114V18H70.9556V13.6758C70.9588 13.2251 70.8438 12.8736 70.6104 12.6211C70.3771 12.3654 70.0559 12.2376 69.6468 12.2376C69.372 12.2376 69.1291 12.2967 68.9181 12.415C68.7104 12.5332 68.5474 12.7058 68.4292 12.9327C68.3141 13.1564 68.255 13.4265 68.2518 13.7429ZM78.5242 10.6364V12.1705H74.0897V10.6364H78.5242ZM75.0965 8.87216H77.1387V15.7372C77.1387 15.9258 77.1675 16.0728 77.225 16.1783C77.2825 16.2805 77.3624 16.3525 77.4647 16.394C77.5702 16.4355 77.6916 16.4563 77.8291 16.4563C77.9249 16.4563 78.0208 16.4483 78.1167 16.4324C78.2126 16.4132 78.2861 16.3988 78.3372 16.3892L78.6584 17.9089C78.5562 17.9409 78.4123 17.9776 78.227 18.0192C78.0416 18.0639 77.8163 18.0911 77.551 18.1007C77.0588 18.1199 76.6274 18.0543 76.2566 17.9041C75.8891 17.7539 75.603 17.5206 75.3985 17.2042C75.1939 16.8878 75.0933 16.4883 75.0965 16.0057V8.87216Z" fill="white"/>
</g>
<g clip-path="url(#clip1_26_797)">
<g clip-path="url(#clip2_26_797)">
<path d="M19.1585 11.4239L12.9723 14.6958V16.7716L19.1585 13.4998V11.4239ZM18.6103 7.42866L12.9723 10.4106V12.4864L20.2938 8.61419H18.6103V7.42866ZM13.0114 4.00189L4.98361 8.22002L4.94446 16.7187L12.9331 20.9991L20.9609 16.7811L21 8.28256L13.0114 4.00189ZM13.0668 6.017L19.0939 9.24658L19.0644 15.6587L13.0076 18.8409L6.98042 15.6115L7.00995 9.19951L13.0668 6.017Z" fill="#409EFF"/>
</g>
</g>
<defs>
<clipPath id="clip0_26_797">
<rect width="59" height="26" fill="white" transform="translate(25)"/>
</clipPath>
<clipPath id="clip1_26_797">
<rect x="4" y="4" width="17" height="17" rx="5" fill="white"/>
</clipPath>
<clipPath id="clip2_26_797">
<rect width="16.0556" height="17" fill="white" transform="translate(4.94446 4)"/>
</clipPath>
</defs>
</svg>
