<svg width="65" height="26" viewBox="0 0 65 26" fill="none" xmlns="http://www.w3.org/2000/svg">
<rect width="64" height="26" rx="8" fill="#3C3C3B"/>
<path d="M20.8533 18V8.18182H27.354V9.89329H22.9292V12.2328H26.9226V13.9442H22.9292V18H20.8533ZM28.712 18V10.6364H30.7542V18H28.712ZM29.7379 9.68714C29.4343 9.68714 29.1738 9.58647 28.9565 9.38512C28.7423 9.18057 28.6353 8.93608 28.6353 8.65163C28.6353 8.37038 28.7423 8.12908 28.9565 7.92773C29.1738 7.72319 29.4343 7.62092 29.7379 7.62092C30.0415 7.62092 30.3004 7.72319 30.5145 7.92773C30.7318 8.12908 30.8405 8.37038 30.8405 8.65163C30.8405 8.93608 30.7318 9.18057 30.5145 9.38512C30.3004 9.58647 30.0415 9.68714 29.7379 9.68714ZM35.7077 20.9148C35.0461 20.9148 34.4788 20.8237 34.0058 20.6415C33.536 20.4625 33.162 20.218 32.884 19.908C32.6059 19.598 32.4253 19.2496 32.3422 18.8629L34.2311 18.6088C34.2886 18.7559 34.3797 18.8933 34.5044 19.0211C34.629 19.149 34.7936 19.2512 34.9981 19.3279C35.2059 19.4078 35.4584 19.4478 35.7556 19.4478C36.1998 19.4478 36.5658 19.3391 36.8534 19.1218C37.1443 18.9077 37.2897 18.5481 37.2897 18.0431V16.696H37.2034C37.1139 16.9006 36.9797 17.0939 36.8007 17.2761C36.6217 17.4583 36.3916 17.6069 36.1104 17.7219C35.8291 17.837 35.4935 17.8945 35.1036 17.8945C34.5507 17.8945 34.0473 17.7667 33.5935 17.511C33.1428 17.2521 32.7833 16.8574 32.5148 16.3269C32.2496 15.7931 32.1169 15.1188 32.1169 14.3038C32.1169 13.4696 32.2528 12.7729 32.5244 12.2136C32.7961 11.6543 33.1572 11.2356 33.6079 10.9576C34.0617 10.6795 34.5587 10.5405 35.0988 10.5405C35.5111 10.5405 35.8563 10.6108 36.1343 10.7514C36.4124 10.8888 36.6361 11.0614 36.8055 11.2692C36.9781 11.4737 37.1107 11.6751 37.2034 11.8732H37.2801V10.6364H39.308V18.0719C39.308 18.6983 39.1546 19.2225 38.8477 19.6444C38.5409 20.0662 38.1159 20.3826 37.5725 20.5936C37.0324 20.8077 36.4108 20.9148 35.7077 20.9148ZM35.7508 16.3604C36.08 16.3604 36.358 16.2789 36.585 16.1159C36.8151 15.9498 36.9909 15.7132 37.1123 15.4064C37.2369 15.0964 37.2993 14.7257 37.2993 14.2942C37.2993 13.8627 37.2385 13.4888 37.1171 13.1724C36.9957 12.8528 36.8199 12.6051 36.5898 12.4293C36.3596 12.2536 36.08 12.1657 35.7508 12.1657C35.4152 12.1657 35.1324 12.2567 34.9023 12.4389C34.6721 12.6179 34.498 12.8672 34.3797 13.1868C34.2615 13.5064 34.2023 13.8755 34.2023 14.2942C34.2023 14.7193 34.2615 15.0868 34.3797 15.3968C34.5012 15.7037 34.6753 15.9418 34.9023 16.1112C35.1324 16.2773 35.4152 16.3604 35.7508 16.3604ZM40.9331 18V10.6364H42.8795V11.9355H42.9658C43.1192 11.5041 43.3749 11.1637 43.7329 10.9144C44.0908 10.6651 44.5191 10.5405 45.0177 10.5405C45.5226 10.5405 45.9525 10.6667 46.3073 10.9192C46.662 11.1685 46.8985 11.5073 47.0168 11.9355H47.0935C47.2437 11.5137 47.5154 11.1765 47.9085 10.924C48.3048 10.6683 48.773 10.5405 49.3131 10.5405C50.0003 10.5405 50.558 10.7594 50.9862 11.1973C51.4177 11.6319 51.6334 12.2488 51.6334 13.0478V18H49.596V13.4505C49.596 13.0414 49.4873 12.7346 49.27 12.53C49.0526 12.3255 48.781 12.2232 48.455 12.2232C48.0843 12.2232 47.795 12.3414 47.5873 12.5779C47.3795 12.8113 47.2757 13.1197 47.2757 13.5032V18H45.2957V13.4073C45.2957 13.0462 45.1919 12.7585 44.9841 12.5444C44.7796 12.3303 44.5095 12.2232 44.1739 12.2232C43.947 12.2232 43.7425 12.2807 43.5603 12.3958C43.3813 12.5076 43.2391 12.6658 43.1336 12.8704C43.0281 13.0717 42.9754 13.3082 42.9754 13.5799V18H40.9331ZM55.3464 18.139C54.8766 18.139 54.4579 18.0575 54.0904 17.8945C53.7228 17.7283 53.432 17.4838 53.2179 17.161C53.0069 16.835 52.9015 16.4292 52.9015 15.9434C52.9015 15.5343 52.9766 15.1907 53.1268 14.9126C53.277 14.6346 53.4815 14.4109 53.7404 14.2415C53.9993 14.0721 54.2933 13.9442 54.6225 13.858C54.9549 13.7717 55.3033 13.7109 55.6676 13.6758C56.0959 13.631 56.4411 13.5895 56.7031 13.5511C56.9652 13.5096 57.1554 13.4489 57.2736 13.369C57.3919 13.2891 57.451 13.1708 57.451 13.0142V12.9854C57.451 12.6818 57.3551 12.4469 57.1634 12.2807C56.9748 12.1145 56.7063 12.0314 56.358 12.0314C55.9904 12.0314 55.698 12.1129 55.4806 12.2759C55.2633 12.4357 55.1195 12.6371 55.0492 12.88L53.1603 12.7266C53.2562 12.2791 53.4448 11.8924 53.726 11.5664C54.0073 11.2372 54.37 10.9847 54.8143 10.8089C55.2617 10.63 55.7795 10.5405 56.3675 10.5405C56.7766 10.5405 57.1681 10.5884 57.5421 10.6843C57.9192 10.7802 58.2532 10.9288 58.544 11.1301C58.8381 11.3315 59.0698 11.5904 59.2392 11.9068C59.4086 12.22 59.4933 12.5955 59.4933 13.0334V18H57.5565V16.9789H57.4989C57.3807 17.209 57.2225 17.4119 57.0243 17.5877C56.8262 17.7603 56.5881 17.8961 56.31 17.9952C56.032 18.0911 55.7108 18.139 55.3464 18.139ZM55.9313 16.7296C56.2317 16.7296 56.497 16.6705 56.7271 16.5522C56.9572 16.4308 57.1378 16.2678 57.2688 16.0632C57.3999 15.8587 57.4654 15.627 57.4654 15.3681V14.5866C57.4015 14.6282 57.3136 14.6665 57.2017 14.7017C57.093 14.7337 56.97 14.764 56.8326 14.7928C56.6951 14.8184 56.5577 14.8423 56.4203 14.8647C56.2828 14.8839 56.1582 14.9015 56.0463 14.9174C55.8066 14.9526 55.5973 15.0085 55.4183 15.0852C55.2393 15.1619 55.1003 15.2658 55.0012 15.3968C54.9022 15.5247 54.8526 15.6845 54.8526 15.8762C54.8526 16.1543 54.9533 16.3668 55.1547 16.5138C55.3592 16.6577 55.6181 16.7296 55.9313 16.7296Z" fill="white"/>
<g clip-path="url(#clip0_26_739)">
<path d="M7.00232 22C7.79797 22 8.56103 21.6839 9.12364 21.1213C9.68625 20.5587 10.0023 19.7956 10.0023 19V16H7.00232C6.20667 16 5.44361 16.3161 4.881 16.8787C4.31839 17.4413 4.00232 18.2044 4.00232 19C4.00232 19.7956 4.31839 20.5587 4.881 21.1213C5.44361 21.6839 6.20667 22 7.00232 22Z" fill="#0ACF83"/>
<path d="M4.00232 13C4.00232 12.2044 4.31839 11.4413 4.881 10.8787C5.44361 10.3161 6.20667 10 7.00232 10H10.0023V16H7.00232C6.20667 16 5.44361 15.6839 4.881 15.1213C4.31839 14.5587 4.00232 13.7956 4.00232 13Z" fill="#A259FF"/>
<path d="M4.00232 7C4.00232 6.20476 4.31807 5.44205 4.88017 4.87951C5.44227 4.31697 6.20473 4.00062 6.99998 4H9.99998V10H7.00232C6.20667 10 5.44361 9.68393 4.881 9.12132C4.31839 8.55871 4.00232 7.79565 4.00232 7Z" fill="#F24E1E"/>
<path d="M10.0023 4H13.0023C13.798 4 14.561 4.31607 15.1236 4.87868C15.6862 5.44129 16.0023 6.20435 16.0023 7C16.0023 7.79565 15.6862 8.55871 15.1236 9.12132C14.561 9.68393 13.798 10 13.0023 10H10.0023V4Z" fill="#FF7262"/>
<path d="M16.0023 13C16.0023 13.7956 15.6862 14.5587 15.1236 15.1213C14.561 15.6839 13.798 16 13.0023 16C12.2067 16 11.4436 15.6839 10.881 15.1213C10.3184 14.5587 10.0023 13.7956 10.0023 13C10.0023 12.2044 10.3184 11.4413 10.881 10.8787C11.4436 10.3161 12.2067 10 13.0023 10C13.798 10 14.561 10.3161 15.1236 10.8787C15.6862 11.4413 16.0023 12.2044 16.0023 13Z" fill="#1ABCFE"/>
</g>
<defs>
<clipPath id="clip0_26_739">
<rect x="1" y="4" width="18" height="18" rx="5" fill="white"/>
</clipPath>
</defs>
</svg>
