<svg width="45.53" height="25" xmlns="http://www.w3.org/2000/svg">

 <g>
  <title>Layer 1</title>
  <rect id="svg_1" fill="#3c3c3b" rx="7" height="25" width="45.53" class="cls-1"/>
  <text id="svg_2" font-family="ArialMT, Arial" fill="#fff" font-size="13.59px" transform="translate(23.78 17.67) scale(0.99 1)" class="cls-2">Git</text>
  <path id="svg_3" fill="#ea5235" d="m20.97,11.69l-7.86,-7.89a1.16,1.16 0 0 0 -1.62,0l-1.64,1.63l2.07,2.07a1.39,1.39 0 0 1 1.42,0.33a1.37,1.37 0 0 1 0.33,1.43l2,2a1.37,1.37 0 0 1 1.42,0.32a1.38,1.38 0 0 1 -1.95,2a1.37,1.37 0 0 1 -0.3,-1.5l-1.88,-1.88l0,4.9a1.5,1.5 0 0 1 0.36,0.26a1.38,1.38 0 1 1 -1.95,0a1.48,1.48 0 0 1 0.45,-0.3l0,-4.94a1.48,1.48 0 0 1 -0.45,-0.3a1.38,1.38 0 0 1 -0.3,-1.51l-2,-2.05l-5.39,5.4a1.15,1.15 0 0 0 0,1.64l7.81,7.86a1.16,1.16 0 0 0 1.64,0l7.83,-7.82a1.18,1.18 0 0 0 0,-1.65" class="cls-3"/>
 </g>
</svg>