<svg width="83.35" height="25" xmlns="http://www.w3.org/2000/svg">

 <g>
  <title>Layer 1</title>
  <rect id="svg_1" fill="#3c3c3b" rx="7" height="25" width="83.35" class="cls-1"/>
  <path id="svg_2" fill="#2d0e0f" d="m7.02,3.59l12.13,0a3.33,3.33 0 0 1 3.33,3.33l0,11.62a3.33,3.33 0 0 1 -3.33,3.33l-12.13,0a3.33,3.33 0 0 1 -3.32,-3.33l0,-11.62a3.33,3.33 0 0 1 3.32,-3.33z" class="cls-2"/>
  <path id="svg_3" fill="#f4991c" d="m12.78,14.54l-2.91,0l-0.6,1.84a0.13,0.13 0 0 1 -0.15,0.11l-1.47,0c-0.08,0 -0.11,0 -0.08,-0.14l2.52,-7.25a1.86,1.86 0 0 1 0.08,-0.26a2.78,2.78 0 0 0 0,-0.51s0,-0.07 0.06,-0.08l2,0c0.06,0 0.09,0 0.1,0.06l2.86,8.06c0,0.08 0,0.12 -0.08,0.12l-1.57,0a0.11,0.11 0 0 1 -0.12,-0.08l-0.64,-1.87zm-2.46,-1.58l2,0q-0.07,-0.26 -0.18,-0.57c-0.07,-0.21 -0.14,-0.44 -0.21,-0.67s-0.15,-0.48 -0.23,-0.72s-0.15,-0.47 -0.21,-0.7s-0.12,-0.42 -0.17,-0.61l0,0c-0.07,0.34 -0.16,0.68 -0.26,1l-0.36,1.16c-0.14,0.41 -0.26,0.78 -0.38,1.11zm6.7,-3.34a1,1 0 0 1 -0.69,-0.28a1,1 0 0 1 -0.27,-0.72a0.9,0.9 0 0 1 0.28,-0.69a1,1 0 0 1 0.7,-0.28a0.94,0.94 0 0 1 0.71,0.28a1.06,1.06 0 0 1 0,1.41a0.93,0.93 0 0 1 -0.71,0.28l-0.02,0zm-0.87,6.79l0,-6c0,-0.08 0,-0.11 0.1,-0.11l1.55,0c0.07,0 0.1,0 0.1,0.11l0,6c0,0.08 0,0.12 -0.1,0.12l-1.56,0c-0.08,0.01 -0.11,-0.05 -0.11,-0.12l0.02,0z" class="cls-3"/>
  <text id="svg_4" font-family="ArialMT, Arial" fill="#fff" font-size="13.59px" transform="translate(23.78 17.67) scale(0.99 1)" class="cls-4">Illustrator</text>
 </g>
</svg>