<svg width="48" height="48" xmlns="http://www.w3.org/2000/svg" data-name="Layer 1">
 <defs>
  <linearGradient y2="0.14646" x2="0.85354" y1="0.85354" x1="0.14646" id="linear-gradient">
   <stop stop-color="#ffd523" offset="0"/>
   <stop stop-color="#ffd122" offset="0.06"/>
   <stop stop-color="#fcc022" offset="0.12"/>
   <stop stop-color="#f7a623" offset="0.2"/>
   <stop stop-color="#f08220" offset="0.28"/>
   <stop stop-color="#ea5720" offset="0.37"/>
   <stop stop-color="#e52d1d" offset="0.46"/>
   <stop stop-color="#e41d1b" offset="0.5"/>
   <stop stop-color="#e41d1c" offset="0.5"/>
   <stop stop-color="#e1043c" offset="0.6"/>
   <stop stop-color="#d20267" offset="0.69"/>
   <stop stop-color="#c21f84" offset="0.78"/>
   <stop stop-color="#a8358b" offset="0.86"/>
   <stop stop-color="#9b3b8e" offset="0.94"/>
   <stop stop-color="#973c8f" offset="1"/>
  </linearGradient>
 </defs>
 <g>
  <title>Layer 1</title>
  <path id="svg_1" fill="url(#linear-gradient)" d="m24,48l0,0a24,24 0 0 1 -24,-24l0,0a24,24 0 0 1 24,-24l0,0a24,24 0 0 1 24,24l0,0a24,24 0 0 1 -24,24z" class="cls-1"/>
  <path id="svg_2" fill="#fff" d="m24,10.57c4.37,0 4.89,0 6.62,0.1a9.06,9.06 0 0 1 3,0.56a5.41,5.41 0 0 1 3.11,3.11a9,9 0 0 1 0.57,3c0.07,1.73 0.09,2.25 0.09,6.62s0,4.89 -0.09,6.62a9,9 0 0 1 -0.57,3a5.06,5.06 0 0 1 -1.22,1.88a5.2,5.2 0 0 1 -1.89,1.23a9.06,9.06 0 0 1 -3,0.56c-1.73,0.08 -2.25,0.1 -6.62,0.1s-4.89,0 -6.62,-0.1a9.12,9.12 0 0 1 -3,-0.56a5.16,5.16 0 0 1 -1.88,-1.23a5.08,5.08 0 0 1 -1.29,-1.81a9.06,9.06 0 0 1 -0.56,-3c-0.08,-1.73 -0.1,-2.25 -0.1,-6.62s0,-4.89 0.1,-6.62a9.06,9.06 0 0 1 0.56,-3a5.49,5.49 0 0 1 3.11,-3.11a9.12,9.12 0 0 1 3,-0.56c1.73,-0.09 2.25,-0.1 6.62,-0.1m0,-2.95c-4.45,0 -5,0 -6.75,0.1a12,12 0 0 0 -4,0.76a7.9,7.9 0 0 0 -2.9,1.89a8,8 0 0 0 -1.89,2.9a12.15,12.15 0 0 0 -0.76,4c-0.09,1.75 -0.11,2.3 -0.11,6.75s0,5 0.11,6.76a12,12 0 0 0 0.76,4a8.41,8.41 0 0 0 4.79,4.78a12.23,12.23 0 0 0 4,0.77c1.75,0.08 2.31,0.1 6.76,0.1s5,0 6.75,-0.1a12.23,12.23 0 0 0 4,-0.77a8.41,8.41 0 0 0 4.78,-4.79a11.86,11.86 0 0 0 0.77,-4c0.08,-1.75 0.1,-2.31 0.1,-6.76s0,-5 -0.1,-6.75a12,12 0 0 0 -0.77,-4a7.74,7.74 0 0 0 -1.89,-2.89a8,8 0 0 0 -2.9,-1.89a11.86,11.86 0 0 0 -4,-0.77c-1.68,-0.13 -2.24,-0.13 -6.69,-0.13l-0.06,0.04z" class="cls-2"/>
  <path id="svg_3" fill="#fff" d="m24,15.59a8.41,8.41 0 1 0 8.42,8.41a8.41,8.41 0 0 0 -8.42,-8.41zm0,13.87a5.46,5.46 0 1 1 5.46,-5.46a5.46,5.46 0 0 1 -5.46,5.46z" class="cls-2"/>
  <circle id="svg_4" fill="#fff" r="1.97" cy="15.25" cx="32.75" class="cls-2"/>
 </g>
</svg>