<svg width="101.56" height="25" xmlns="http://www.w3.org/2000/svg" data-name="IntelliJ IDEA">
 <defs>
  <linearGradient y2="0.5" x2="1" y1="0.5" x1="0" id="linear-gradient">
   <stop stop-color="#ef7a1f" offset="0.26"/>
   <stop stop-color="#b07c58" offset="0.46"/>
   <stop stop-color="#587caf" offset="0.72"/>
   <stop stop-color="#3a74b9" offset="0.91"/>
   <stop stop-color="#3b71b7" offset="1"/>
  </linearGradient>
  <linearGradient y2="0.77632" x2="1.21224" y1="0.34579" x1="0.00408" id="linear-gradient-2">
   <stop stop-color="#ef7a1f" offset="0"/>
   <stop stop-color="#ca7a3e" offset="0.07"/>
   <stop stop-color="#9e7c6b" offset="0.15"/>
   <stop stop-color="#767c91" offset="0.24"/>
   <stop stop-color="#547cb2" offset="0.33"/>
   <stop stop-color="#3d7abe" offset="0.43"/>
   <stop stop-color="#3a75ba" offset="0.54"/>
   <stop stop-color="#3972b8" offset="0.66"/>
   <stop stop-color="#3a71b7" offset="0.79"/>
   <stop stop-color="#3b71b7" offset="1"/>
  </linearGradient>
  <linearGradient y2="-0.06605" x2="0.30303" y1="0.97629" x1="0.78322" id="linear-gradient-3">
   <stop stop-color="#e83a60" offset="0"/>
   <stop stop-color="#cc427f" offset="0.08"/>
   <stop stop-color="#9d4f99" offset="0.16"/>
   <stop stop-color="#725ca4" offset="0.25"/>
   <stop stop-color="#5162ab" offset="0.34"/>
   <stop stop-color="#4267af" offset="0.44"/>
   <stop stop-color="#3a6cb3" offset="0.54"/>
   <stop stop-color="#386eb5" offset="0.66"/>
   <stop stop-color="#3870b6" offset="0.79"/>
   <stop stop-color="#3b71b7" offset="1"/>
  </linearGradient>
  <linearGradient y2="1.32661" x2="1.03376" y1="0.24164" x1="0.19919" id="linear-gradient-4">
   <stop stop-color="#e83a60" offset="0"/>
   <stop stop-color="#e83a64" offset="0.04"/>
   <stop stop-color="#e03a71" offset="0.1"/>
   <stop stop-color="#c34484" offset="0.17"/>
   <stop stop-color="#ae4b92" offset="0.29"/>
   <stop stop-color="#725ca4" offset="0.55"/>
   <stop stop-color="#396db4" offset="0.92"/>
   <stop stop-color="#3b71b7" offset="1"/>
  </linearGradient>
 </defs>
 <g>
  <title>Layer 1</title>
  <rect id="svg_1" fill="#3c3c3b" rx="7" height="25" width="101.56" class="cls-1"/>
  <text id="svg_2" fill="#fff" font-family="ArialMT, Arial" font-size="13.59px" transform="translate(24.3 17.67) scale(0.99 1)" class="cls-2">IntelliJ IDE
   <tspan id="svg_3" letter-spacing="-0.06em" y="0" x="64.94" class="cls-3">A</tspan></text>
  <polygon id="svg_4" fill="url(#linear-gradient)" points="8.1 17.91 3.43 14.21 5.75 9.91 12.4 12.5 8.1 17.91" class="cls-4"/>
  <polygon id="svg_5" fill="url(#linear-gradient-2)" points="22.52 8 22.16 19.17 14.74 22.15 10.27 19.29 16.81 12.5 13.94 6.24 16.51 3.15 22.52 8" class="cls-5"/>
  <polygon id="svg_6" fill="url(#linear-gradient-3)" points="22.52 8 16.64 14.96 13.94 6.24 16.51 3.15 22.52 8" class="cls-6"/>
  <polygon id="svg_7" fill="url(#linear-gradient-4)" points="12.51 18.87 4.76 21.68 6 17.33 7.63 11.98 3.21 10.49 6 2.85 12.07 3.59 18.02 10.4 12.51 18.87" class="cls-7"/>
  <rect id="svg_8" fill="#010101" height="11.91" width="11.91" y="6.57" x="6.99" class="cls-8"/>
  <rect id="svg_9" fill="#fff" height="0.74" width="4.47" y="16.25" x="8.09" class="cls-9"/>
  <polygon id="svg_10" fill="#fff" points="11.32 9.03 11.32 8.12 8.84 8.12 8.84 9.03 9.56 9.03 9.56 12.14 8.84 12.14 8.84 13.05 11.32 13.05 11.32 12.14 10.63 12.14 10.63 9.03 11.32 9.03" class="cls-9"/>
  <path id="svg_11" fill="#fff" d="m13.69,13.13a2,2 0 0 1 -1,-0.22a2.17,2.17 0 0 1 -0.6,-0.54l0.68,-0.77a1.92,1.92 0 0 0 0.42,0.36a1,1 0 0 0 0.47,0.13a0.63,0.63 0 0 0 0.49,-0.19a1,1 0 0 0 0.17,-0.63l0,-3.15l1.1,0l0,3.25a2.2,2.2 0 0 1 -0.11,0.77a1.46,1.46 0 0 1 -0.36,0.56a1.31,1.31 0 0 1 -0.55,0.33a2,2 0 0 1 -0.72,0.13" class="cls-9"/>
 </g>
</svg>