<svg width="57.50000000000001" height="25.5" xmlns="http://www.w3.org/2000/svg" data-name="Layer 1">
 <g id="Layer_1">
  <title>Layer 1</title>
  <g>

   <rect x="0.21" y="0.25" fill="#3c3c3b" rx="7" height="25" width="57.08" class="cls-1"/>
   <text x="0.21212" y="0.25" font-family="ArialMT, Arial" fill="#fff" font-size="13.59px" transform="translate(24.27 17.67) scale(0.99 1)" class="cls-2">Java</text>
   <path fill="#4f7997" transform="translate(0 0)" d="m9.76,17.57s-0.75,0.46 0.53,0.59a10.65,10.65 0 0 0 4.07,-0.16a6.4,6.4 0 0 0 1.09,0.52c-3.84,1.65 -8.71,-0.09 -5.69,-0.95zm-0.49,-2.13s-0.82,0.62 0.46,0.75a15.4,15.4 0 0 0 5.26,-0.26a2,2 0 0 0 0.79,0.49c-4.63,1.38 -9.82,0.13 -6.51,-1l0,0.02zm9.07,3.74s0.56,0.46 -0.62,0.82c-2.2,0.66 -9.24,0.86 -11.21,0c-0.69,-0.29 0.63,-0.72 1,-0.79a3.61,3.61 0 0 1 0.7,-0.09c-0.76,-0.53 -5,1.08 -2.17,1.54c7.85,1.28 14.32,-0.56 12.29,-1.48l0.01,0zm-8.22,-5.93s-3.58,0.86 -1.28,1.15a28.82,28.82 0 0 0 4.73,0c1.48,-0.13 3,-0.4 3,-0.4a7.71,7.71 0 0 0 -0.89,0.46c-3.65,1 -10.64,0.53 -8.64,-0.46a6.81,6.81 0 0 1 3.08,-0.75zm6.41,3.58c3.68,-1.9 2,-3.74 0.79,-3.51a1.71,1.71 0 0 0 -0.43,0.13a0.55,0.55 0 0 1 0.33,-0.26c2.33,-0.83 4.17,2.46 -0.76,3.74a0.51,0.51 0 0 0 0.07,-0.1zm-6.05,5.19c3.55,0.23 9,-0.13 9.1,-1.8c0,0 -0.26,0.65 -2.92,1.15a29.9,29.9 0 0 1 -9,0.13s0.46,0.39 2.79,0.52l0.03,0z" class="cls-3"/>
   <path fill="#f08220" transform="translate(0 0)" d="m14.3,2.36s2,2.07 -1.94,5.19c-3.19,2.53 -0.72,4 0,5.62c-1.87,-1.68 -3.22,-3.16 -2.3,-4.54c1.35,-2.03 5.06,-3.01 4.24,-6.27zm-1.09,9.43a1.43,1.43 0 0 1 -0.26,2.07s2.43,-1.25 1.32,-2.79s-1.81,-2.21 2.46,-4.67c0.04,0 -6.7,1.68 -3.52,5.39z" class="cls-4"/>
  </g>
 </g>

</svg>