<svg width="89.59" height="25" xmlns="http://www.w3.org/2000/svg">

 <g>
  <title>Layer 1</title>
  <rect id="svg_1" fill="#3c3c3b" rx="7" height="25" width="89.59" class="cls-1"/>
  <path id="svg_2" fill="#e9ca33" d="m5.71,20.35l-1.3,-16l15.61,0l-1.38,16l-6.37,1.84l-6.56,-1.84z" class="cls-2"/>
  <path id="svg_3" fill="#ffde27" d="m12.27,20.65l0,-14.8l6.43,0l-1.13,13.27l-5.3,1.53z" class="cls-3"/>
  <path id="svg_4" fill="#fff" d="m11.57,7.65l-1.7,0l0,9.82l-1.3,-0.25l0,-1.37l-1.57,-0.25l0,3l4.57,1.25l0,-12.2zm1.28,0l4.72,0l-0.32,1.88l-2.59,0l0,3.09l2.59,0l-0.31,6.23l-4.08,1l0,-2l2.75,-1l0.16,-2.58l-2.91,0.42l-0.01,-7.04z" class="cls-4"/>
  <text id="svg_5" font-family="ArialMT, Arial" font-size="13.59px" fill="#fff" transform="translate(23.78 17.67) scale(0.99 1)" class="cls-5">JavaScript</text>
 </g>
</svg>