<svg width="73.66" height="25" xmlns="http://www.w3.org/2000/svg">

 <g>
  <title>Layer 1</title>
  <rect id="svg_1" fill="#3c3c3b" rx="7" height="25" width="73.66" class="cls-1"/>
  <text id="svg_2" font-family="ArialMT, Arial" fill="#fff" font-size="13.59px" transform="translate(24.3 17.67) scale(0.99 1)" class="cls-2">Jupyter</text>
  <g id="Canvas">
   <g id="Group">
    <g data-name="Group" id="Group-2">
     <g data-name="Group" id="Group-3">
      <g id="g">
       <g id="path">
        <g data-name="path9 fill" id="path9_fill">
         <path fill="#4f4f4f" d="m6.33,13.64c0,0.58 0,0.77 -0.16,0.9a0.73,0.73 0 0 1 -0.48,0.19l0,0.33a1.12,1.12 0 0 0 0.76,-0.28a1.26,1.26 0 0 0 0.28,-0.41a1.35,1.35 0 0 0 0.05,-0.53l0,-2.23l-0.45,0l0,2l0,0.03z" class="cls-3" data-name="path0 fill" id="path0_fill"/>
        </g>
       </g>
       <g data-name="path" id="path-2">
        <g data-name="path10 fill" id="path10_fill">
         <path fill="#4f4f4f" d="m9.63,13.37c0,0.25 0,0.47 0,0.66l-0.39,0l0,-0.39a1,1 0 0 1 -0.35,0.33a0.93,0.93 0 0 1 -0.46,0.12c-0.38,0 -0.84,-0.21 -0.84,-1.06l0,-1.4l0.45,0l0,1.32c0,0.46 0.14,0.77 0.54,0.77a0.69,0.69 0 0 0 0.24,-0.05a0.66,0.66 0 0 0 0.2,-0.14a0.48,0.48 0 0 0 0.14,-0.2a0.67,0.67 0 0 0 0,-0.24l0,-1.48l0.47,0l0,1.76z" class="cls-3" data-name="path1 fill" id="path1_fill"/>
        </g>
       </g>
       <g data-name="path" id="path-3">
        <g data-name="path11 fill" id="path11_fill">
         <path fill="#4f4f4f" d="m10.47,12.37c0,-0.3 0,-0.55 0,-0.78l0.4,0l0,0.41a1,1 0 0 1 0.37,-0.35a0.86,0.86 0 0 1 0.5,-0.12a1.1,1.1 0 0 1 1,1.23a1.15,1.15 0 0 1 -1.11,1.33a0.82,0.82 0 0 1 -0.43,-0.09a0.89,0.89 0 0 1 -0.32,-0.29l0,0l0,1.32l-0.44,0l0,-2.61l0.03,-0.05zm0.44,0.65a1.1,1.1 0 0 0 0,0.18a0.75,0.75 0 0 0 0.24,0.37a0.71,0.71 0 0 0 0.42,0.14c0.47,0 0.74,-0.38 0.74,-0.93s-0.26,-0.9 -0.72,-0.9a0.8,0.8 0 0 0 -0.49,0.23a0.75,0.75 0 0 0 -0.21,0.49l0.02,0.42z" class="cls-3" data-name="path2 fill" id="path2_fill"/>
        </g>
       </g>
       <g data-name="path" id="path-4">
        <g data-name="path12 fill" id="path12_fill">
         <path fill="#4f4f4f" d="m13.55,11.63l0.54,1.42l0.15,0.49c0,-0.14 0.1,-0.33 0.16,-0.5l0.48,-1.41l0.46,0l-0.66,1.74a3.84,3.84 0 0 1 -0.83,1.51a1.29,1.29 0 0 1 -0.54,0.29l-0.11,-0.37a1.11,1.11 0 0 0 0.43,-0.25a1.41,1.41 0 0 0 0.38,-0.49a0.19,0.19 0 0 0 0,-0.1a0.27,0.27 0 0 0 0,-0.12l-0.89,-2.22l0.48,0l-0.05,0.01z" class="cls-3" data-name="path3 fill" id="path3_fill"/>
        </g>
       </g>
       <g data-name="path" id="path-5">
        <g data-name="path13 fill" id="path13_fill">
         <path fill="#4f4f4f" d="m16.52,10.93l0,0.7l0.63,0l0,0.33l-0.63,0l0,1.3c0,0.29 0.08,0.47 0.33,0.47a1.15,1.15 0 0 0 0.26,0l0,0.33a1.34,1.34 0 0 1 -0.4,0.06a0.82,0.82 0 0 1 -0.26,0a0.78,0.78 0 0 1 -0.22,-0.15a0.93,0.93 0 0 1 -0.17,-0.63l0,-1.39l-0.37,0l0,-0.33l0.38,0l0,-0.59l0.45,-0.1z" class="cls-3" data-name="path4 fill" id="path4_fill"/>
        </g>
       </g>
       <g data-name="path" id="path-6">
        <g data-name="path14 fill" id="path14_fill">
         <path fill="#4f4f4f" d="m17.97,12.91a0.75,0.75 0 0 0 0,0.33a0.84,0.84 0 0 0 0.18,0.28a0.84,0.84 0 0 0 0.28,0.18a0.75,0.75 0 0 0 0.33,0a1.46,1.46 0 0 0 0.66,-0.12l0.08,0.33a1.88,1.88 0 0 1 -0.81,0.15a1.08,1.08 0 0 1 -0.47,-0.07a1.25,1.25 0 0 1 -0.41,-0.26a1.16,1.16 0 0 1 -0.18,-0.36a1,1 0 0 1 -0.06,-0.48a1.18,1.18 0 0 1 1.14,-1.3a1,1 0 0 1 1,1.14l0,0.2l-1.7,0l-0.04,-0.02zm1.29,-0.33a0.46,0.46 0 0 0 0,-0.26a0.55,0.55 0 0 0 -0.12,-0.24a0.83,0.83 0 0 0 -0.21,-0.16a0.75,0.75 0 0 0 -0.26,0a0.74,0.74 0 0 0 -0.48,0.22a0.8,0.8 0 0 0 -0.2,0.49l1.27,-0.05z" class="cls-3" data-name="path5 fill" id="path5_fill"/>
        </g>
       </g>
       <g data-name="path" id="path-7">
        <g data-name="path15 fill" id="path15_fill">
         <path fill="#4f4f4f" d="m20.34,12.37c0,-0.29 0,-0.53 0,-0.76l0.39,0l0,0.48l0,0a0.74,0.74 0 0 1 0.25,-0.37a0.7,0.7 0 0 1 0.41,-0.16l0.13,0l0,0.41a0.38,0.38 0 0 0 -0.15,0a0.66,0.66 0 0 0 -0.4,0.17a0.58,0.58 0 0 0 -0.19,0.39a0.75,0.75 0 0 0 0,0.21l0,1.28l-0.44,0l0,-1.65z" class="cls-3" data-name="path6 fill" id="path6_fill"/>
        </g>
       </g>
      </g>
     </g>
     <g data-name="g" id="g-2">
      <g data-name="path" id="path-8">
       <g data-name="path16 fill" id="path16_fill">
        <path fill="#777678" d="m20.14,4.99a1.12,1.12 0 0 1 -0.15,0.64a1.14,1.14 0 0 1 -0.48,0.44a1.09,1.09 0 0 1 -0.64,0.1a1.09,1.09 0 0 1 -0.59,-0.28a1.06,1.06 0 0 1 -0.34,-0.56a1.2,1.2 0 0 1 0,-0.65a1.12,1.12 0 0 1 0.39,-0.52a1.16,1.16 0 0 1 0.62,-0.22a1.07,1.07 0 0 1 0.43,0.06a1.39,1.39 0 0 1 0.37,0.22a1.1,1.1 0 0 1 0.26,0.35a1,1 0 0 1 0.1,0.42l0.03,0z" class="cls-4" data-name="path7 fill" id="path7_fill"/>
       </g>
      </g>
      <g data-name="path" id="path-9">
       <g data-name="path17 fill" id="path17_fill">
        <path fill="#ee7729" d="m13.63,17.93a9.24,9.24 0 0 1 -6.93,-2.65a7.4,7.4 0 0 0 2.71,3.51a7.4,7.4 0 0 0 4.22,1.32a7.43,7.43 0 0 0 4.23,-1.32a7.47,7.47 0 0 0 2.71,-3.51a9.23,9.23 0 0 1 -6.94,2.65z" class="cls-5" data-name="path8 fill" id="path8_fill"/>
       </g>
      </g>
      <g data-name="path" id="path-10">
       <g data-name="path18 fill" id="path18_fill">
        <path fill="#ee7729" d="m13.63,7.68a9.28,9.28 0 0 1 6.92,2.69a7.44,7.44 0 0 0 -2.71,-3.5a7.44,7.44 0 0 0 -4.21,-1.38a7.41,7.41 0 0 0 -4.22,1.33a7.38,7.38 0 0 0 -2.73,3.55a9.26,9.26 0 0 1 6.95,-2.69z" class="cls-5" data-name="path9 fill" id="path9_fill-2"/>
       </g>
      </g>
      <g data-name="path" id="path-11">
       <g data-name="path19 fill" id="path19_fill">
        <path fill="#9e9e9e" d="m9.52,20.99a1.42,1.42 0 0 1 -0.79,1.38a1.4,1.4 0 0 1 -1.56,-0.22a1.33,1.33 0 0 1 -0.42,-0.71a1.35,1.35 0 0 1 0,-0.82a1.39,1.39 0 0 1 0.49,-0.66a1.42,1.42 0 0 1 1.39,-0.21a1.34,1.34 0 0 1 0.47,0.28a1.37,1.37 0 0 1 0.33,0.43a1.42,1.42 0 0 1 0.13,0.53l-0.04,0z" class="cls-6" data-name="path10 fill" id="path10_fill-2"/>
       </g>
      </g>
      <g data-name="path" id="path-12">
       <g data-name="path20 fill" id="path20_fill">
        <path fill="#626363" d="m7.02,7.37a0.81,0.81 0 0 1 -0.46,-0.12a0.9,0.9 0 0 1 -0.31,-0.36a0.8,0.8 0 0 1 -0.06,-0.46a0.8,0.8 0 0 1 0.21,-0.42a0.82,0.82 0 0 1 0.41,-0.24a0.76,0.76 0 0 1 0.47,0a0.74,0.74 0 0 1 0.37,0.28a0.81,0.81 0 0 1 0.15,0.45a0.8,0.8 0 0 1 -0.22,0.58a0.8,0.8 0 0 1 -0.56,0.29z" class="cls-7" data-name="path11 fill" id="path11_fill-2"/>
       </g>
      </g>
     </g>
    </g>
   </g>
  </g>
 </g>
</svg>