<svg width="94" height="26" viewBox="0 0 94 26" fill="none" xmlns="http://www.w3.org/2000/svg">
<rect width="94" height="26" rx="8" fill="#3C3C3B"/>
<g clip-path="url(#clip0_26_766)">
<path d="M26.8533 8.18182H29.4134L32.1172 14.7784H32.2322L34.9361 8.18182H37.4961V18H35.4826V11.6096H35.4011L32.8603 17.9521H31.4892L28.9483 11.5856H28.8668V18H26.8533V8.18182ZM42.4951 18.1438C41.7504 18.1438 41.1064 17.9856 40.5631 17.6692C40.0229 17.3496 39.6059 16.9054 39.3118 16.3365C39.0178 15.7644 38.8708 15.1012 38.8708 14.3469C38.8708 13.5863 39.0178 12.9215 39.3118 12.3526C39.6059 11.7805 40.0229 11.3363 40.5631 11.0199C41.1064 10.7003 41.7504 10.5405 42.4951 10.5405C43.2397 10.5405 43.8821 10.7003 44.4223 11.0199C44.9656 11.3363 45.3843 11.7805 45.6783 12.3526C45.9723 12.9215 46.1194 13.5863 46.1194 14.3469C46.1194 15.1012 45.9723 15.7644 45.6783 16.3365C45.3843 16.9054 44.9656 17.3496 44.4223 17.6692C43.8821 17.9856 43.2397 18.1438 42.4951 18.1438ZM42.5047 16.5618C42.8434 16.5618 43.1263 16.4659 43.3532 16.2741C43.5801 16.0792 43.7511 15.8139 43.8662 15.4783C43.9844 15.1428 44.0435 14.7608 44.0435 14.3326C44.0435 13.9043 43.9844 13.5224 43.8662 13.1868C43.7511 12.8512 43.5801 12.5859 43.3532 12.391C43.1263 12.196 42.8434 12.0985 42.5047 12.0985C42.1627 12.0985 41.875 12.196 41.6417 12.391C41.4116 12.5859 41.2374 12.8512 41.1192 13.1868C41.0041 13.5224 40.9466 13.9043 40.9466 14.3326C40.9466 14.7608 41.0041 15.1428 41.1192 15.4783C41.2374 15.8139 41.4116 16.0792 41.6417 16.2741C41.875 16.4659 42.1627 16.5618 42.5047 16.5618ZM49.4896 13.7429V18H47.4473V10.6364H49.3937V11.9355H49.48C49.643 11.5073 49.9162 11.1685 50.2998 10.9192C50.6833 10.6667 51.1483 10.5405 51.6948 10.5405C52.2062 10.5405 52.652 10.6523 53.0324 10.8761C53.4127 11.0998 53.7083 11.4194 53.9193 11.8349C54.1302 12.2472 54.2357 12.7393 54.2357 13.3114V18H52.1934V13.6758C52.1966 13.2251 52.0815 12.8736 51.8482 12.6211C51.6149 12.3654 51.2937 12.2376 50.8846 12.2376C50.6098 12.2376 50.3669 12.2967 50.1559 12.415C49.9482 12.5332 49.7852 12.7058 49.6669 12.9327C49.5519 13.1564 49.4928 13.4265 49.4896 13.7429ZM59.1627 20.9148C58.5012 20.9148 57.9339 20.8237 57.4608 20.6415C56.991 20.4625 56.6171 20.218 56.339 19.908C56.061 19.598 55.8804 19.2496 55.7973 18.8629L57.6862 18.6088C57.7437 18.7559 57.8348 18.8933 57.9594 19.0211C58.0841 19.149 58.2487 19.2512 58.4532 19.3279C58.661 19.4078 58.9134 19.4478 59.2107 19.4478C59.6549 19.4478 60.0209 19.3391 60.3085 19.1218C60.5993 18.9077 60.7448 18.5481 60.7448 18.0431V16.696H60.6585C60.569 16.9006 60.4347 17.0939 60.2558 17.2761C60.0768 17.4583 59.8467 17.6069 59.5654 17.7219C59.2842 17.837 58.9486 17.8945 58.5587 17.8945C58.0058 17.8945 57.5024 17.7667 57.0486 17.511C56.5979 17.2521 56.2384 16.8574 55.9699 16.3269C55.7046 15.7931 55.572 15.1188 55.572 14.3038C55.572 13.4696 55.7078 12.7729 55.9795 12.2136C56.2512 11.6543 56.6123 11.2356 57.0629 10.9576C57.5168 10.6795 58.0138 10.5405 58.5539 10.5405C58.9662 10.5405 59.3113 10.6108 59.5894 10.7514C59.8675 10.8888 60.0912 11.0614 60.2606 11.2692C60.4332 11.4737 60.5658 11.6751 60.6585 11.8732H60.7352V10.6364H62.7631V18.0719C62.7631 18.6983 62.6096 19.2225 62.3028 19.6444C61.996 20.0662 61.5709 20.3826 61.0276 20.5936C60.4875 20.8077 59.8659 20.9148 59.1627 20.9148ZM59.2059 16.3604C59.5351 16.3604 59.8131 16.2789 60.04 16.1159C60.2702 15.9498 60.4459 15.7132 60.5674 15.4064C60.692 15.0964 60.7544 14.7257 60.7544 14.2942C60.7544 13.8627 60.6936 13.4888 60.5722 13.1724C60.4507 12.8528 60.2749 12.6051 60.0448 12.4293C59.8147 12.2536 59.5351 12.1657 59.2059 12.1657C58.8703 12.1657 58.5874 12.2567 58.3573 12.4389C58.1272 12.6179 57.953 12.8672 57.8348 13.1868C57.7165 13.5064 57.6574 13.8755 57.6574 14.2942C57.6574 14.7193 57.7165 15.0868 57.8348 15.3968C57.9562 15.7037 58.1304 15.9418 58.3573 16.1112C58.5874 16.2773 58.8703 16.3604 59.2059 16.3604ZM67.7153 18.1438C66.9706 18.1438 66.3266 17.9856 65.7833 17.6692C65.2432 17.3496 64.8261 16.9054 64.532 16.3365C64.238 15.7644 64.091 15.1012 64.091 14.3469C64.091 13.5863 64.238 12.9215 64.532 12.3526C64.8261 11.7805 65.2432 11.3363 65.7833 11.0199C66.3266 10.7003 66.9706 10.5405 67.7153 10.5405C68.46 10.5405 69.1024 10.7003 69.6425 11.0199C70.1858 11.3363 70.6045 11.7805 70.8985 12.3526C71.1926 12.9215 71.3396 13.5863 71.3396 14.3469C71.3396 15.1012 71.1926 15.7644 70.8985 16.3365C70.6045 16.9054 70.1858 17.3496 69.6425 17.6692C69.1024 17.9856 68.46 18.1438 67.7153 18.1438ZM67.7249 16.5618C68.0637 16.5618 68.3465 16.4659 68.5734 16.2741C68.8003 16.0792 68.9713 15.8139 69.0864 15.4783C69.2046 15.1428 69.2638 14.7608 69.2638 14.3326C69.2638 13.9043 69.2046 13.5224 69.0864 13.1868C68.9713 12.8512 68.8003 12.5859 68.5734 12.391C68.3465 12.196 68.0637 12.0985 67.7249 12.0985C67.3829 12.0985 67.0953 12.196 66.8619 12.391C66.6318 12.5859 66.4577 12.8512 66.3394 13.1868C66.2243 13.5224 66.1668 13.9043 66.1668 14.3326C66.1668 14.7608 66.2243 15.1428 66.3394 15.4783C66.4577 15.8139 66.6318 16.0792 66.8619 16.2741C67.0953 16.4659 67.3829 16.5618 67.7249 16.5618ZM76.1863 18H72.7059V8.18182H76.2151C77.2027 8.18182 78.0528 8.37837 78.7655 8.77148C79.4782 9.1614 80.0264 9.7223 80.4099 10.4542C80.7966 11.1861 80.99 12.0618 80.99 13.0813C80.99 14.104 80.7966 14.983 80.4099 15.718C80.0264 16.4531 79.4751 17.0172 78.7559 17.4103C78.04 17.8034 77.1835 18 76.1863 18ZM74.7817 16.2214H76.1001C76.7137 16.2214 77.2298 16.1127 77.6485 15.8954C78.0704 15.6749 78.3868 15.3345 78.5977 14.8743C78.8119 14.4109 78.9189 13.8132 78.9189 13.0813C78.9189 12.3558 78.8119 11.763 78.5977 11.3027C78.3868 10.8425 78.072 10.5037 77.6533 10.2864C77.2346 10.0691 76.7185 9.9604 76.1048 9.9604H74.7817V16.2214ZM82.5277 18V8.18182H86.4588C87.1811 8.18182 87.7835 8.28888 88.2661 8.50302C88.7487 8.71715 89.1115 9.01438 89.3544 9.39471C89.5973 9.77184 89.7187 10.2065 89.7187 10.6987C89.7187 11.0822 89.642 11.4194 89.4886 11.7102C89.3352 11.9979 89.1242 12.2344 88.8558 12.4197C88.5905 12.6019 88.2869 12.7314 87.9449 12.8081V12.9039C88.3188 12.9199 88.6688 13.0254 88.9948 13.2203C89.324 13.4153 89.5909 13.6886 89.7954 14.0401C90 14.3885 90.1022 14.804 90.1022 15.2866C90.1022 15.8075 89.9728 16.2725 89.7139 16.6816C89.4582 17.0875 89.0795 17.4087 88.5777 17.6452C88.076 17.8817 87.4575 18 86.7224 18H82.5277ZM84.6035 16.3029H86.2958C86.8742 16.3029 87.2961 16.1926 87.5614 15.9721C87.8267 15.7484 87.9593 15.4512 87.9593 15.0804C87.9593 14.8088 87.8938 14.5691 87.7627 14.3613C87.6317 14.1536 87.4447 13.9906 87.2018 13.8723C86.9621 13.7541 86.6761 13.695 86.3437 13.695H84.6035V16.3029ZM84.6035 12.2903H86.1424C86.4268 12.2903 86.6793 12.2408 86.8998 12.1417C87.1235 12.0394 87.2993 11.8956 87.4272 11.7102C87.5582 11.5249 87.6237 11.3027 87.6237 11.0439C87.6237 10.6891 87.4975 10.4031 87.245 10.1857C86.9957 9.96839 86.6409 9.85973 86.1807 9.85973H84.6035V12.2903Z" fill="white"/>
</g>
<path d="M12.95 5.04349L13.377 5.84549C13.473 5.99349 13.577 6.12449 13.6995 6.24649C14.057 6.60399 14.3965 6.97849 14.7015 7.37949C15.425 8.32949 15.913 9.38449 16.2615 10.5255C16.4705 11.2225 16.584 11.9375 16.5925 12.6605C16.6275 14.822 15.8865 16.678 14.3925 18.2205C14.1485 18.4645 13.8875 18.6905 13.6075 18.8915C13.4595 18.8915 13.3895 18.778 13.3285 18.6735C13.215 18.482 13.1455 18.2635 13.1105 18.046C13.058 17.7845 13.0235 17.523 13.0405 17.253V17.131C13.0285 17.105 12.898 5.10499 12.95 5.04349Z" fill="#599636"/>
<path d="M12.95 5.01699C12.9325 4.98199 12.915 5.00849 12.8975 5.02549C12.906 5.20049 12.845 5.35649 12.7495 5.50549C12.6445 5.65349 12.5055 5.76699 12.366 5.88899C11.591 6.55999 10.981 7.37049 10.4925 8.27699C9.84247 9.49699 9.50747 10.8045 9.41247 12.181C9.36897 12.6775 9.56947 14.4295 9.72597 14.935C10.153 16.277 10.92 17.4015 11.9135 18.3775C12.1575 18.6125 12.4185 18.8305 12.6885 19.04C12.767 19.04 12.7755 18.97 12.7935 18.918C12.8279 18.8067 12.8541 18.6931 12.872 18.578L13.047 17.271L12.95 5.01699Z" fill="#6CAC48"/>
<path d="M13.377 19.4225C13.3945 19.2225 13.4905 19.0565 13.595 18.891C13.49 18.8475 13.412 18.761 13.351 18.6645C13.2985 18.5775 13.255 18.473 13.221 18.377C13.099 18.011 13.073 17.627 13.038 17.253V17.0265C12.9945 17.0615 12.9855 17.3575 12.9855 17.4015C12.96 17.7968 12.9076 18.1899 12.8285 18.578C12.8025 18.735 12.785 18.8915 12.6885 19.031C12.6885 19.0485 12.6885 19.066 12.697 19.092C12.854 19.554 12.897 20.0245 12.9235 20.504V20.679C12.9235 20.888 12.915 20.844 13.0885 20.914C13.1585 20.94 13.2365 20.949 13.3065 21.001C13.359 21.001 13.3675 20.9575 13.3675 20.9225L13.3415 20.635V19.833C13.333 19.693 13.359 19.554 13.3765 19.423L13.377 19.4225Z" fill="#C2BFBF"/>
<defs>
<clipPath id="clip0_26_766">
<rect width="68" height="26" fill="white" transform="translate(26)"/>
</clipPath>
</defs>
</svg>
