<svg width="81" height="26" viewBox="0 0 81 26" fill="none" xmlns="http://www.w3.org/2000/svg">
<rect width="80" height="26" rx="8" fill="#3C3C3B"/>
<g clip-path="url(#clip0_26_803)">
<path d="M35.0655 8.18182V18H33.2725L29.0011 11.8205H28.9292V18H26.8533V8.18182H28.6751L32.913 14.3565H32.9993V8.18182H35.0655ZM40.0693 18.1438C39.3246 18.1438 38.6806 17.9856 38.1373 17.6692C37.5972 17.3496 37.1801 16.9054 36.8861 16.3365C36.592 15.7644 36.445 15.1012 36.445 14.3469C36.445 13.5863 36.592 12.9215 36.8861 12.3526C37.1801 11.7805 37.5972 11.3363 38.1373 11.0199C38.6806 10.7003 39.3246 10.5405 40.0693 10.5405C40.814 10.5405 41.4564 10.7003 41.9965 11.0199C42.5398 11.3363 42.9585 11.7805 43.2525 12.3526C43.5466 12.9215 43.6936 13.5863 43.6936 14.3469C43.6936 15.1012 43.5466 15.7644 43.2525 16.3365C42.9585 16.9054 42.5398 17.3496 41.9965 17.6692C41.4564 17.9856 40.814 18.1438 40.0693 18.1438ZM40.0789 16.5618C40.4177 16.5618 40.7005 16.4659 40.9274 16.2741C41.1543 16.0792 41.3253 15.8139 41.4404 15.4783C41.5586 15.1428 41.6178 14.7608 41.6178 14.3326C41.6178 13.9043 41.5586 13.5224 41.4404 13.1868C41.3253 12.8512 41.1543 12.5859 40.9274 12.391C40.7005 12.196 40.4177 12.0985 40.0789 12.0985C39.7369 12.0985 39.4493 12.196 39.216 12.391C38.9858 12.5859 38.8117 12.8512 38.6934 13.1868C38.5783 13.5224 38.5208 13.9043 38.5208 14.3326C38.5208 14.7608 38.5783 15.1428 38.6934 15.4783C38.8117 15.8139 38.9858 16.0792 39.216 16.2741C39.4493 16.4659 39.7369 16.5618 40.0789 16.5618ZM47.735 18.1199C47.1756 18.1199 46.6691 17.976 46.2152 17.6884C45.7646 17.3975 45.4066 16.9709 45.1414 16.4084C44.8793 15.8427 44.7483 15.1491 44.7483 14.3278C44.7483 13.484 44.8841 12.7825 45.1558 12.2232C45.4274 11.6607 45.7886 11.2404 46.2392 10.9624C46.693 10.6811 47.19 10.5405 47.7302 10.5405C48.1424 10.5405 48.486 10.6108 48.7609 10.7514C49.0389 10.8888 49.2627 11.0614 49.432 11.2692C49.6046 11.4737 49.7357 11.6751 49.8252 11.8732H49.8875V8.18182H51.9249V18H49.9114V16.8207H49.8252C49.7293 17.0252 49.5934 17.2282 49.4177 17.4295C49.2451 17.6277 49.0198 17.7923 48.7417 17.9233C48.4668 18.0543 48.1313 18.1199 47.735 18.1199ZM48.3821 16.4947C48.7113 16.4947 48.9894 16.4052 49.2163 16.2262C49.4464 16.044 49.6222 15.79 49.7437 15.464C49.8683 15.138 49.9306 14.756 49.9306 14.3182C49.9306 13.8803 49.8699 13.5 49.7484 13.1772C49.627 12.8544 49.4512 12.6051 49.2211 12.4293C48.991 12.2536 48.7113 12.1657 48.3821 12.1657C48.0466 12.1657 47.7637 12.2567 47.5336 12.4389C47.3035 12.6211 47.1293 12.8736 47.0111 13.1964C46.8928 13.5192 46.8337 13.8931 46.8337 14.3182C46.8337 14.7464 46.8928 15.1252 47.0111 15.4544C47.1325 15.7804 47.3067 16.036 47.5336 16.2214C47.7637 16.4036 48.0466 16.4947 48.3821 16.4947ZM56.9599 18.1438C56.2024 18.1438 55.5504 17.9904 55.0039 17.6836C54.4606 17.3736 54.0419 16.9357 53.7479 16.37C53.4538 15.8011 53.3068 15.1284 53.3068 14.3517C53.3068 13.5943 53.4538 12.9295 53.7479 12.3574C54.0419 11.7853 54.4558 11.3395 54.9895 11.0199C55.5265 10.7003 56.1561 10.5405 56.8784 10.5405C57.3642 10.5405 57.8164 10.6188 58.2351 10.7754C58.657 10.9288 59.0245 11.1605 59.3377 11.4705C59.6541 11.7805 59.9002 12.1705 60.076 12.6403C60.2518 13.1069 60.3397 13.6534 60.3397 14.2798V14.8407H54.1218V13.5751H58.4173C58.4173 13.2811 58.3533 13.0206 58.2255 12.7937C58.0977 12.5668 57.9203 12.3894 57.6934 12.2615C57.4696 12.1305 57.2092 12.065 56.9119 12.065C56.6019 12.065 56.3271 12.1369 56.0874 12.2807C55.8509 12.4213 55.6655 12.6115 55.5312 12.8512C55.397 13.0877 55.3283 13.3514 55.3251 13.6422V14.8455C55.3251 15.2099 55.3922 15.5247 55.5265 15.79C55.6639 16.0552 55.8572 16.2598 56.1065 16.4036C56.3558 16.5474 56.6515 16.6193 56.9934 16.6193C57.2203 16.6193 57.4281 16.5874 57.6167 16.5234C57.8052 16.4595 57.9666 16.3636 58.1009 16.2358C58.2351 16.108 58.3374 15.9513 58.4077 15.766L60.2965 15.8906C60.2006 16.3445 60.0041 16.7408 59.7069 17.0795C59.4128 17.4151 59.0325 17.6772 58.5659 17.8658C58.1025 18.0511 57.5671 18.1438 56.9599 18.1438ZM62.8661 18.1246C62.5497 18.1246 62.2781 18.0128 62.0511 17.7891C61.8274 17.5621 61.7156 17.2905 61.7156 16.9741C61.7156 16.6609 61.8274 16.3924 62.0511 16.1687C62.2781 15.945 62.5497 15.8331 62.8661 15.8331C63.1729 15.8331 63.4414 15.945 63.6715 16.1687C63.9016 16.3924 64.0167 16.6609 64.0167 16.9741C64.0167 17.185 63.9624 17.3784 63.8537 17.5542C63.7482 17.7267 63.6092 17.8658 63.4366 17.9712C63.264 18.0735 63.0739 18.1246 62.8661 18.1246ZM65.6934 10.6364H67.7357V18.3643C67.7357 18.9332 67.6238 19.3935 67.4001 19.745C67.1764 20.0966 66.8552 20.3539 66.4365 20.5169C66.021 20.6799 65.524 20.7614 64.9455 20.7614C64.8752 20.7614 64.8081 20.7598 64.7442 20.7566C64.6771 20.7566 64.6068 20.755 64.5332 20.7518V19.1554C64.5876 19.1586 64.6355 19.1602 64.6771 19.1602C64.7154 19.1634 64.757 19.165 64.8017 19.165C65.1309 19.165 65.361 19.0946 65.4921 18.954C65.6263 18.8166 65.6934 18.6088 65.6934 18.3308V10.6364ZM66.7097 9.68714C66.4093 9.68714 66.1504 9.58647 65.9331 9.38512C65.7158 9.18057 65.6071 8.93608 65.6071 8.65163C65.6071 8.37038 65.7158 8.12908 65.9331 7.92773C66.1504 7.72319 66.4093 7.62092 66.7097 7.62092C67.0166 7.62092 67.277 7.72319 67.4912 7.92773C67.7085 8.12908 67.8172 8.37038 67.8172 8.65163C67.8172 8.93608 67.7085 9.18057 67.4912 9.38512C67.277 9.58647 67.0166 9.68714 66.7097 9.68714ZM75.4984 12.7362L73.6287 12.8512C73.5968 12.6914 73.5281 12.5476 73.4226 12.4197C73.3171 12.2887 73.1781 12.1848 73.0055 12.1081C72.8361 12.0282 72.6332 11.9883 72.3967 11.9883C72.0803 11.9883 71.8134 12.0554 71.5961 12.1896C71.3787 12.3207 71.2701 12.4964 71.2701 12.717C71.2701 12.8928 71.3404 13.0414 71.481 13.1628C71.6216 13.2843 71.8629 13.3817 72.2049 13.4553L73.5376 13.7237C74.2536 13.8707 74.7873 14.1072 75.1388 14.4332C75.4904 14.7592 75.6662 15.1875 75.6662 15.718C75.6662 16.2006 75.524 16.6241 75.2395 16.9885C74.9583 17.3528 74.5716 17.6373 74.0794 17.8418C73.5904 18.0431 73.0263 18.1438 72.3871 18.1438C71.4123 18.1438 70.6357 17.9409 70.0572 17.535C69.4819 17.1259 69.1447 16.5698 69.0456 15.8667L71.0543 15.7612C71.1151 16.0584 71.2621 16.2853 71.4954 16.4419C71.7287 16.5953 72.0275 16.6721 72.3919 16.6721C72.7498 16.6721 73.0375 16.6033 73.2548 16.4659C73.4753 16.3253 73.5872 16.1447 73.5904 15.9242C73.5872 15.7388 73.5089 15.587 73.3555 15.4688C73.2021 15.3473 72.9656 15.2546 72.646 15.1907L71.3707 14.9366C70.6516 14.7928 70.1163 14.5435 69.7647 14.1887C69.4164 13.834 69.2422 13.3817 69.2422 12.832C69.2422 12.359 69.37 11.9515 69.6257 11.6096C69.8846 11.2676 70.2473 11.0039 70.714 10.8185C71.1838 10.6332 71.7335 10.5405 72.3631 10.5405C73.2931 10.5405 74.025 10.737 74.5588 11.1301C75.0957 11.5233 75.4089 12.0586 75.4984 12.7362Z" fill="white"/>
</g>
<g clip-path="url(#clip1_26_803)">
<path d="M12.786 4.22685C13.211 3.98619 13.7529 3.98513 14.1673 4.22685L20.5125 7.80376C20.9093 8.02688 21.175 8.46941 21.1713 8.92682V16.0987C21.1739 16.5752 20.8823 17.0273 20.4636 17.2462L14.1524 20.8066C13.9365 20.9259 13.6926 20.9852 13.4461 20.9784C13.1996 20.9716 12.9594 20.8989 12.7504 20.7678L10.8565 19.6735C10.7274 19.5964 10.5824 19.5353 10.491 19.4105C10.5718 19.3021 10.7152 19.2883 10.8321 19.2405C11.0956 19.1566 11.3368 19.028 11.579 18.892C11.6401 18.8495 11.715 18.8654 11.7734 18.9037L13.3884 19.8376C13.5037 19.904 13.6206 19.8164 13.7194 19.7606L19.9164 16.2634C19.9929 16.2262 20.0354 16.1454 20.0291 16.0615V8.95869C20.0376 8.86307 19.9828 8.77594 19.8963 8.73716L13.6009 5.19213C13.5647 5.16704 13.5216 5.15355 13.4775 5.15346C13.4334 5.15336 13.3903 5.16666 13.3539 5.1916L7.06763 8.74407C6.98263 8.78285 6.92419 8.86891 6.93482 8.96454V16.0674C6.92738 16.1513 6.97201 16.2304 7.04904 16.2666L8.72885 17.2149C9.04441 17.3849 9.43169 17.4805 9.77913 17.3556C9.93117 17.2983 10.0621 17.1959 10.1543 17.0621C10.2465 16.9284 10.2956 16.7696 10.295 16.6071L10.2966 9.54679C10.2891 9.44213 10.3879 9.35554 10.4894 9.36616H11.2969C11.4032 9.36351 11.4866 9.47613 11.4722 9.58132L11.4706 16.6863C11.4712 17.3174 11.2119 18.0038 10.6281 18.3135C9.90876 18.6854 9.01944 18.6073 8.30863 18.2497L6.50238 17.251C6.07738 17.0385 5.7921 16.5795 5.79476 16.1035V8.9316C5.79652 8.6985 5.86061 8.47012 5.98036 8.27013C6.10011 8.07013 6.27118 7.90581 6.47582 7.79419L12.786 4.22685ZM14.6156 9.19829C15.5331 9.14516 16.5154 9.16323 17.3409 9.61532C17.98 9.96169 18.3344 10.6884 18.3461 11.3993C18.328 11.4949 18.2281 11.548 18.1368 11.5411C17.8711 11.5406 17.6044 11.5448 17.3378 11.5395C17.2246 11.5438 17.1593 11.4396 17.1449 11.3398C17.0684 10.9998 16.883 10.6635 16.5632 10.4993C16.0723 10.2534 15.5028 10.2656 14.9673 10.2709C14.5763 10.2921 14.1561 10.3256 13.8251 10.5551C13.5701 10.7294 13.4936 11.0864 13.5845 11.3637C13.6695 11.5671 13.9048 11.6325 14.0966 11.693C15.2027 11.982 16.3741 11.9587 17.4594 12.3343C17.9083 12.4894 18.3477 12.7911 18.5017 13.2613C18.7025 13.8914 18.6149 14.6447 18.167 15.1504C17.8037 15.5669 17.2745 15.7879 16.7459 15.9165C16.0431 16.0732 15.3142 16.0769 14.6008 16.0068C13.9298 15.9303 13.2317 15.7539 12.7138 15.297C12.2707 14.9124 12.055 14.3132 12.0763 13.7352C12.0816 13.6374 12.1788 13.5694 12.2728 13.5774H13.0697C13.177 13.5699 13.2556 13.6624 13.2609 13.7633C13.3104 14.0821 13.432 14.4274 13.7146 14.6133C14.2597 14.965 14.9434 14.9406 15.5671 14.9507C16.084 14.9278 16.6641 14.9209 17.0865 14.5788C17.3096 14.3838 17.3749 14.0582 17.3149 13.7777C17.2496 13.5407 16.9962 13.4308 16.7837 13.3527C15.6919 13.0073 14.5073 13.1327 13.4262 12.7417C12.9874 12.5866 12.5629 12.2934 12.3945 11.8423C12.1591 11.2048 12.267 10.4149 12.7626 9.9261C13.2408 9.44001 13.942 9.25248 14.6061 9.18554L14.6156 9.19829Z" fill="#8CC84B"/>
</g>
<defs>
<clipPath id="clip0_26_803">
<rect width="55" height="26" fill="white" transform="translate(26)"/>
</clipPath>
<clipPath id="clip1_26_803">
<rect width="17" height="17" fill="white" transform="translate(5 4)"/>
</clipPath>
</defs>
</svg>
