<svg width="90.55" height="25" xmlns="http://www.w3.org/2000/svg">

 <g>
  <title>Layer 1</title>
  <rect id="svg_1" fill="#3c3c3b" rx="7" height="25" width="90.55" class="cls-1"/>
  <text id="svg_2" font-family="ArialMT, Arial" fill="#fff" font-size="13.59px" transform="translate(23.78 17.67) scale(0.99 1)" class="cls-2">Photoshop</text>
  <g data-name="Layer 2" id="Layer_2">
   <g id="Surfaces">
    <g data-name="Photo Surface" id="Photo_Surface">
     <g data-name="Outline no shadow" id="Outline_no_shadow">
      <path id="svg_3" fill="#132035" d="m7.03,3.46l12.12,0a3.31,3.31 0 0 1 3.32,3.32l0,11.68a3.32,3.32 0 0 1 -3.32,3.32l-12.12,0a3.33,3.33 0 0 1 -3.33,-3.32l0,-11.64a3.32,3.32 0 0 1 3.33,-3.36z" class="cls-3"/>
     </g>
    </g>
   </g>
   <g data-name="Outlined Mnemonics Logos" id="Outlined_Mnemonics_Logos">
    <g id="Ps">
     <path id="svg_4" fill="#53a0d8" d="m7.93,16.33l0,-8.05s0,-0.08 0.07,-0.08l1,0l0.68,0l0.71,0a4.71,4.71 0 0 1 1.61,0.24a2.94,2.94 0 0 1 1,0.65a2.52,2.52 0 0 1 0.57,0.89a2.91,2.91 0 0 1 0.18,1a2.82,2.82 0 0 1 -0.38,1.63a2.59,2.59 0 0 1 -1.26,0.95a5,5 0 0 1 -1.76,0.27l-0.73,0l0,2.52a0.1,0.1 0 0 1 -0.08,0.11l-1.52,0c-0.06,0 -0.09,-0.06 -0.09,-0.13zm1.7,-6.62l0,2.63l0.74,0a2.73,2.73 0 0 0 0.9,-0.14a1.36,1.36 0 0 0 0.64,-0.41a1.19,1.19 0 0 0 0.24,-0.81a1.26,1.26 0 0 0 -0.18,-0.7a1.11,1.11 0 0 0 -0.54,-0.44a2.25,2.25 0 0 0 -0.93,-0.16l-0.53,0a1.44,1.44 0 0 0 -0.32,0l-0.02,0.03z" class="cls-4"/>
     <path id="svg_5" fill="#53a0d8" d="m18.72,11.86a2.68,2.68 0 0 0 -0.75,-0.27a4.32,4.32 0 0 0 -0.88,-0.1a1.52,1.52 0 0 0 -0.47,0.06a0.38,0.38 0 0 0 -0.24,0.15a0.42,0.42 0 0 0 -0.06,0.21a0.37,0.37 0 0 0 0.08,0.21a1.09,1.09 0 0 0 0.26,0.21l0.56,0.26a5.28,5.28 0 0 1 1.2,0.57a1.76,1.76 0 0 1 0.62,0.65a1.59,1.59 0 0 1 0.18,0.8a1.81,1.81 0 0 1 -0.3,1a1.94,1.94 0 0 1 -0.88,0.7a3.65,3.65 0 0 1 -1.42,0.25a5.36,5.36 0 0 1 -1.06,-0.1a3.72,3.72 0 0 1 -0.8,-0.25a0.16,0.16 0 0 1 -0.08,-0.15l0,-1.32s0,-0.06 0,-0.07s0,0 0.07,0a3.27,3.27 0 0 0 1,0.38a3.57,3.57 0 0 0 0.92,0.12a1.49,1.49 0 0 0 0.65,-0.11a0.36,0.36 0 0 0 0.21,-0.33a0.43,0.43 0 0 0 -0.16,-0.27a3.39,3.39 0 0 0 -0.76,-0.36a4.48,4.48 0 0 1 -1.14,-0.64a1.9,1.9 0 0 1 -0.6,-0.66a1.7,1.7 0 0 1 -0.18,-0.8a1.87,1.87 0 0 1 0.27,-0.95a1.83,1.83 0 0 1 0.82,-0.71a3,3 0 0 1 1.38,-0.28a6.33,6.33 0 0 1 1,0.07a3,3 0 0 1 0.68,0.18a0.12,0.12 0 0 1 0.07,0.07a0.3,0.3 0 0 1 0,0.1l0,1.27a0.12,0.12 0 0 1 0,0.08l-0.19,0.03z" class="cls-4"/>
    </g>
   </g>
  </g>
 </g>
</svg>