<svg width="68" height="26" viewBox="0 0 68 26" fill="none" xmlns="http://www.w3.org/2000/svg">
<rect width="67" height="26" rx="8" fill="#3C3C3B"/>
<path d="M26.4794 9.89329V8.18182H34.543V9.89329H31.5371V18H29.4853V9.89329H26.4794ZM35.0679 18V10.6364H37.0479V11.9212H37.1246C37.2588 11.4641 37.4841 11.119 37.8005 10.8857C38.1169 10.6491 38.4813 10.5309 38.8936 10.5309C38.9958 10.5309 39.1061 10.5373 39.2243 10.5501C39.3426 10.5629 39.4465 10.5804 39.536 10.6028V12.415C39.4401 12.3862 39.3074 12.3606 39.1381 12.3382C38.9687 12.3159 38.8137 12.3047 38.673 12.3047C38.3726 12.3047 38.1041 12.3702 37.8676 12.5012C37.6343 12.6291 37.449 12.8081 37.3115 13.0382C37.1773 13.2683 37.1102 13.5336 37.1102 13.834V18H35.0679ZM43.6049 18.1438C42.8474 18.1438 42.1954 17.9904 41.6489 17.6836C41.1056 17.3736 40.6869 16.9357 40.3929 16.37C40.0989 15.8011 39.9518 15.1284 39.9518 14.3517C39.9518 13.5943 40.0989 12.9295 40.3929 12.3574C40.6869 11.7853 41.1008 11.3395 41.6345 11.0199C42.1715 10.7003 42.8011 10.5405 43.5234 10.5405C44.0092 10.5405 44.4614 10.6188 44.8801 10.7754C45.302 10.9288 45.6695 11.1605 45.9827 11.4705C46.2991 11.7805 46.5452 12.1705 46.721 12.6403C46.8968 13.1069 46.9847 13.6534 46.9847 14.2798V14.8407H40.7668V13.5751H45.0623C45.0623 13.2811 44.9984 13.0206 44.8705 12.7937C44.7427 12.5668 44.5653 12.3894 44.3384 12.2615C44.1147 12.1305 43.8542 12.065 43.557 12.065C43.2469 12.065 42.9721 12.1369 42.7324 12.2807C42.4959 12.4213 42.3105 12.6115 42.1763 12.8512C42.042 13.0877 41.9733 13.3514 41.9701 13.6422V14.8455C41.9701 15.2099 42.0372 15.5247 42.1715 15.79C42.3089 16.0552 42.5023 16.2598 42.7516 16.4036C43.0008 16.5474 43.2965 16.6193 43.6384 16.6193C43.8654 16.6193 44.0731 16.5874 44.2617 16.5234C44.4502 16.4595 44.6116 16.3636 44.7459 16.2358C44.8801 16.108 44.9824 15.9513 45.0527 15.766L46.9415 15.8906C46.8457 16.3445 46.6491 16.7408 46.3519 17.0795C46.0578 17.4151 45.6775 17.6772 45.2109 17.8658C44.7475 18.0511 44.2121 18.1438 43.6049 18.1438ZM50.3597 8.18182V18H48.3174V8.18182H50.3597ZM54.0379 8.18182V18H51.9956V8.18182H54.0379ZM59.0009 18.1438C58.2563 18.1438 57.6123 17.9856 57.0689 17.6692C56.5288 17.3496 56.1117 16.9054 55.8177 16.3365C55.5237 15.7644 55.3766 15.1012 55.3766 14.3469C55.3766 13.5863 55.5237 12.9215 55.8177 12.3526C56.1117 11.7805 56.5288 11.3363 57.0689 11.0199C57.6123 10.7003 58.2563 10.5405 59.0009 10.5405C59.7456 10.5405 60.388 10.7003 60.9281 11.0199C61.4715 11.3363 61.8901 11.7805 62.1842 12.3526C62.4782 12.9215 62.6252 13.5863 62.6252 14.3469C62.6252 15.1012 62.4782 15.7644 62.1842 16.3365C61.8901 16.9054 61.4715 17.3496 60.9281 17.6692C60.388 17.9856 59.7456 18.1438 59.0009 18.1438ZM59.0105 16.5618C59.3493 16.5618 59.6321 16.4659 59.8591 16.2741C60.086 16.0792 60.257 15.8139 60.372 15.4783C60.4903 15.1428 60.5494 14.7608 60.5494 14.3326C60.5494 13.9043 60.4903 13.5224 60.372 13.1868C60.257 12.8512 60.086 12.5859 59.8591 12.391C59.6321 12.196 59.3493 12.0985 59.0105 12.0985C58.6685 12.0985 58.3809 12.196 58.1476 12.391C57.9175 12.5859 57.7433 12.8512 57.625 13.1868C57.51 13.5224 57.4525 13.9043 57.4525 14.3326C57.4525 14.7608 57.51 15.1428 57.625 15.4783C57.7433 15.8139 57.9175 16.0792 58.1476 16.2741C58.3809 16.4659 58.6685 16.5618 59.0105 16.5618Z" fill="white"/>
<g clip-path="url(#clip0_26_752)">
<path fill-rule="evenodd" clip-rule="evenodd" d="M19.76 4H6.25143C5.95553 4 5.66253 4.05828 5.38919 4.17152C5.11584 4.28475 4.86752 4.45071 4.65842 4.65991C4.44932 4.86912 4.28354 5.11745 4.17056 5.39072C4.05758 5.66399 3.99963 5.95683 4 6.2525V19.7504C4 20.347 4.23721 20.9192 4.65943 21.3411C5.08165 21.763 5.65431 22 6.25143 22H19.76C20.3551 21.997 20.9249 21.7586 21.3446 21.3371C21.7644 20.9155 22 20.345 22 19.7504V6.25535C22 5.66068 21.7644 5.0902 21.3446 4.66864C20.9249 4.24708 20.3551 4.00873 19.76 4.00571V4ZM11.8343 17.6349C11.8313 17.9191 11.7162 18.1907 11.5139 18.3906C11.3117 18.5905 11.0388 18.7026 10.7543 18.7026H7.42857C7.14312 18.7041 6.86867 18.5927 6.66522 18.3926C6.46178 18.1925 6.34588 17.9201 6.34286 17.6349V7.42585C6.34248 7.28342 6.37032 7.14231 6.42479 7.01068C6.47925 6.87905 6.55926 6.75949 6.66019 6.65891C6.76112 6.55832 6.88098 6.4787 7.01286 6.42462C7.14474 6.37055 7.28602 6.3431 7.42857 6.34385H10.7543C11.0407 6.34385 11.3154 6.45755 11.518 6.65993C11.7205 6.86231 11.8343 7.13679 11.8343 7.423V17.6349ZM19.6714 13.1356C19.6714 13.4218 19.5576 13.6963 19.3551 13.8987C19.1526 14.1011 18.8779 14.2147 18.5914 14.2147H15.2571C14.9707 14.2147 14.696 14.1011 14.4935 13.8987C14.2909 13.6963 14.1771 13.4218 14.1771 13.1356V7.42585C14.1768 7.2839 14.2044 7.14326 14.2585 7.01201C14.3126 6.88075 14.3921 6.76145 14.4925 6.66094C14.5928 6.56043 14.712 6.48068 14.8432 6.42627C14.9744 6.37186 15.1151 6.34385 15.2571 6.34385H18.5914C18.8779 6.34385 19.1526 6.45755 19.3551 6.65993C19.5576 6.86231 19.6714 7.13679 19.6714 7.423V13.1356Z" fill="url(#paint0_linear_26_752)"/>
</g>
<defs>
<linearGradient id="paint0_linear_26_752" x1="13.0057" y1="22.0029" x2="13.0057" y2="4.00285" gradientUnits="userSpaceOnUse">
<stop offset="0.18" stop-color="#0052CC"/>
<stop offset="1" stop-color="#2684FF"/>
</linearGradient>
<clipPath id="clip0_26_752">
<rect x="4" y="4" width="18" height="18" rx="5" fill="white"/>
</clipPath>
</defs>
</svg>
