<svg width="71" height="26" viewBox="0 0 71 26" fill="none" xmlns="http://www.w3.org/2000/svg">
<rect width="71" height="26" rx="8" fill="#3C3C3B"/>
<path d="M28.6271 8.18182L31.0002 15.6413H31.0913L33.4691 8.18182H35.7702L32.3857 18H29.7106L26.3212 8.18182H28.6271ZM41.6357 14.8647V10.6364H43.678V18H41.7172V16.6625H41.6405C41.4743 17.0939 41.1979 17.4407 40.8112 17.7028C40.4276 17.9648 39.9594 18.0959 39.4065 18.0959C38.9143 18.0959 38.4813 17.984 38.1073 17.7603C37.7334 17.5366 37.441 17.2186 37.23 16.8063C37.0223 16.394 36.9168 15.9002 36.9136 15.3249V10.6364H38.9559V14.9606C38.9591 15.3952 39.0757 15.7388 39.3058 15.9913C39.536 16.2438 39.8444 16.37 40.2311 16.37C40.4772 16.37 40.7073 16.3141 40.9214 16.2022C41.1356 16.0872 41.3081 15.9178 41.4392 15.6941C41.5734 15.4703 41.6389 15.1939 41.6357 14.8647ZM48.6674 18.1438C47.9099 18.1438 47.2579 17.9904 46.7114 17.6836C46.1681 17.3736 45.7494 16.9357 45.4554 16.37C45.1614 15.8011 45.0143 15.1284 45.0143 14.3517C45.0143 13.5943 45.1614 12.9295 45.4554 12.3574C45.7494 11.7853 46.1633 11.3395 46.697 11.0199C47.234 10.7003 47.8636 10.5405 48.5859 10.5405C49.0717 10.5405 49.5239 10.6188 49.9426 10.7754C50.3645 10.9288 50.732 11.1605 51.0452 11.4705C51.3616 11.7805 51.6077 12.1705 51.7835 12.6403C51.9593 13.1069 52.0472 13.6534 52.0472 14.2798V14.8407H45.8293V13.5751H50.1248C50.1248 13.2811 50.0609 13.0206 49.933 12.7937C49.8052 12.5668 49.6278 12.3894 49.4009 12.2615C49.1772 12.1305 48.9167 12.065 48.6195 12.065C48.3094 12.065 48.0346 12.1369 47.7949 12.2807C47.5584 12.4213 47.373 12.6115 47.2388 12.8512C47.1045 13.0877 47.0358 13.3514 47.0326 13.6422V14.8455C47.0326 15.2099 47.0997 15.5247 47.234 15.79C47.3714 16.0552 47.5648 16.2598 47.8141 16.4036C48.0633 16.5474 48.359 16.6193 48.7009 16.6193C48.9279 16.6193 49.1356 16.5874 49.3242 16.5234C49.5127 16.4595 49.6741 16.3636 49.8084 16.2358C49.9426 16.108 50.0449 15.9513 50.1152 15.766L52.004 15.8906C51.9082 16.3445 51.7116 16.7408 51.4144 17.0795C51.1203 17.4151 50.74 17.6772 50.2734 17.8658C49.81 18.0511 49.2746 18.1438 48.6674 18.1438ZM54.5736 18.1246C54.2572 18.1246 53.9856 18.0128 53.7587 17.7891C53.5349 17.5621 53.4231 17.2905 53.4231 16.9741C53.4231 16.6609 53.5349 16.3924 53.7587 16.1687C53.9856 15.945 54.2572 15.8331 54.5736 15.8331C54.8805 15.8331 55.1489 15.945 55.379 16.1687C55.6092 16.3924 55.7242 16.6609 55.7242 16.9741C55.7242 17.185 55.6699 17.3784 55.5612 17.5542C55.4557 17.7267 55.3167 17.8658 55.1441 17.9712C54.9715 18.0735 54.7814 18.1246 54.5736 18.1246ZM57.4009 10.6364H59.4432V18.3643C59.4432 18.9332 59.3313 19.3935 59.1076 19.745C58.8839 20.0966 58.5627 20.3539 58.144 20.5169C57.7285 20.6799 57.2315 20.7614 56.6531 20.7614C56.5827 20.7614 56.5156 20.7598 56.4517 20.7566C56.3846 20.7566 56.3143 20.755 56.2408 20.7518V19.1554C56.2951 19.1586 56.343 19.1602 56.3846 19.1602C56.4229 19.1634 56.4645 19.165 56.5092 19.165C56.8384 19.165 57.0685 19.0946 57.1996 18.954C57.3338 18.8166 57.4009 18.6088 57.4009 18.3308V10.6364ZM58.4173 9.68714C58.1168 9.68714 57.858 9.58647 57.6406 9.38512C57.4233 9.18057 57.3146 8.93608 57.3146 8.65163C57.3146 8.37038 57.4233 8.12908 57.6406 7.92773C57.858 7.72319 58.1168 7.62092 58.4173 7.62092C58.7241 7.62092 58.9846 7.72319 59.1987 7.92773C59.416 8.12908 59.5247 8.37038 59.5247 8.65163C59.5247 8.93608 59.416 9.18057 59.1987 9.38512C58.9846 9.58647 58.7241 9.68714 58.4173 9.68714ZM67.2059 12.7362L65.3362 12.8512C65.3043 12.6914 65.2356 12.5476 65.1301 12.4197C65.0246 12.2887 64.8856 12.1848 64.713 12.1081C64.5436 12.0282 64.3407 11.9883 64.1042 11.9883C63.7878 11.9883 63.5209 12.0554 63.3036 12.1896C63.0862 12.3207 62.9776 12.4964 62.9776 12.717C62.9776 12.8928 63.0479 13.0414 63.1885 13.1628C63.3291 13.2843 63.5704 13.3817 63.9124 13.4553L65.2452 13.7237C65.9611 13.8707 66.4948 14.1072 66.8464 14.4332C67.1979 14.7592 67.3737 15.1875 67.3737 15.718C67.3737 16.2006 67.2315 16.6241 66.947 16.9885C66.6658 17.3528 66.2791 17.6373 65.7869 17.8418C65.2979 18.0431 64.7338 18.1438 64.0946 18.1438C63.1198 18.1438 62.3432 17.9409 61.7647 17.535C61.1894 17.1259 60.8522 16.5698 60.7532 15.8667L62.7619 15.7612C62.8226 16.0584 62.9696 16.2853 63.2029 16.4419C63.4362 16.5953 63.735 16.6721 64.0994 16.6721C64.4573 16.6721 64.745 16.6033 64.9623 16.4659C65.1828 16.3253 65.2947 16.1447 65.2979 15.9242C65.2947 15.7388 65.2164 15.587 65.063 15.4688C64.9096 15.3473 64.6731 15.2546 64.3535 15.1907L63.0783 14.9366C62.3592 14.7928 61.8238 14.5435 61.4723 14.1887C61.1239 13.834 60.9497 13.3817 60.9497 12.832C60.9497 12.359 61.0775 11.9515 61.3332 11.6096C61.5921 11.2676 61.9549 11.0039 62.4215 10.8185C62.8913 10.6332 63.441 10.5405 64.0706 10.5405C65.0007 10.5405 65.7326 10.737 66.2663 11.1301C66.8032 11.5233 67.1164 12.0586 67.2059 12.7362Z" fill="white"/>
<g clip-path="url(#clip0_26_791)">
<path d="M15.0778 5.00006L12.9994 8.69505L10.9211 5.00006H3.99969L12.9995 20.9999L21.9993 5.00006H15.0778Z" fill="#41B883"/>
<path d="M15.0778 5.00006L12.9994 8.69505L10.921 5.00006H7.59961L12.9995 14.5998L18.3993 5.00006H15.0778Z" fill="#34495E"/>
</g>
<defs>
<clipPath id="clip0_26_791">
<rect width="18" height="16" fill="white" transform="translate(4 5)"/>
</clipPath>
</defs>
</svg>
