<svg width="71" height="26" viewBox="0 0 71 26" fill="none" xmlns="http://www.w3.org/2000/svg">
<rect width="70" height="26" rx="8" fill="#3C3C3B"/>
<path d="M28.5217 10.6364L29.8736 13.2108L31.2591 10.6364H33.354L31.2207 14.3182L33.4116 18H31.3262L29.8736 15.4544L28.445 18H26.3356L28.5217 14.3182L26.4123 10.6364H28.5217ZM34.5669 18V10.6364H36.5133V11.9355H36.5996C36.753 11.5041 37.0087 11.1637 37.3667 10.9144C37.7246 10.6651 38.1529 10.5405 38.6515 10.5405C39.1564 10.5405 39.5863 10.6667 39.9411 10.9192C40.2958 11.1685 40.5323 11.5073 40.6506 11.9355H40.7273C40.8775 11.5137 41.1491 11.1765 41.5423 10.924C41.9386 10.6683 42.4068 10.5405 42.9469 10.5405C43.6341 10.5405 44.1918 10.7594 44.62 11.1973C45.0515 11.6319 45.2672 12.2488 45.2672 13.0478V18H43.2298V13.4505C43.2298 13.0414 43.1211 12.7346 42.9038 12.53C42.6864 12.3255 42.4148 12.2232 42.0888 12.2232C41.718 12.2232 41.4288 12.3414 41.2211 12.5779C41.0133 12.8113 40.9094 13.1197 40.9094 13.5032V18H38.9295V13.4073C38.9295 13.0462 38.8256 12.7585 38.6179 12.5444C38.4134 12.3303 38.1433 12.2232 37.8077 12.2232C37.5808 12.2232 37.3762 12.2807 37.1941 12.3958C37.0151 12.5076 36.8729 12.6658 36.7674 12.8704C36.6619 13.0717 36.6092 13.3082 36.6092 13.5799V18H34.5669ZM46.8804 18V10.6364H48.9227V18H46.8804ZM47.9063 9.68714C47.6027 9.68714 47.3422 9.58647 47.1249 9.38512C46.9108 9.18057 46.8037 8.93608 46.8037 8.65163C46.8037 8.37038 46.9108 8.12908 47.1249 7.92773C47.3422 7.72319 47.6027 7.62092 47.9063 7.62092C48.21 7.62092 48.4688 7.72319 48.683 7.92773C48.9003 8.12908 49.009 8.37038 49.009 8.65163C49.009 8.93608 48.9003 9.18057 48.683 9.38512C48.4688 9.58647 48.21 9.68714 47.9063 9.68714ZM52.6009 13.7429V18H50.5586V10.6364H52.505V11.9355H52.5913C52.7543 11.5073 53.0276 11.1685 53.4111 10.9192C53.7946 10.6667 54.2596 10.5405 54.8062 10.5405C55.3175 10.5405 55.7634 10.6523 56.1437 10.8761C56.524 11.0998 56.8196 11.4194 57.0306 11.8349C57.2415 12.2472 57.347 12.7393 57.347 13.3114V18H55.3047V13.6758C55.3079 13.2251 55.1929 12.8736 54.9596 12.6211C54.7263 12.3654 54.4051 12.2376 53.996 12.2376C53.7211 12.2376 53.4782 12.2967 53.2673 12.415C53.0595 12.5332 52.8965 12.7058 52.7783 12.9327C52.6632 13.1564 52.6041 13.4265 52.6009 13.7429ZM61.67 18.1199C61.1107 18.1199 60.6041 17.976 60.1503 17.6884C59.6997 17.3975 59.3417 16.9709 59.0764 16.4084C58.8144 15.8427 58.6833 15.1491 58.6833 14.3278C58.6833 13.484 58.8192 12.7825 59.0908 12.2232C59.3625 11.6607 59.7236 11.2404 60.1743 10.9624C60.6281 10.6811 61.1251 10.5405 61.6652 10.5405C62.0775 10.5405 62.4211 10.6108 62.6959 10.7514C62.974 10.8888 63.1977 11.0614 63.3671 11.2692C63.5397 11.4737 63.6707 11.6751 63.7602 11.8732H63.8225V8.18182H65.86V18H63.8465V16.8207H63.7602C63.6643 17.0252 63.5285 17.2282 63.3527 17.4295C63.1801 17.6277 62.9548 17.7923 62.6768 17.9233C62.4019 18.0543 62.0663 18.1199 61.67 18.1199ZM62.3172 16.4947C62.6464 16.4947 62.9244 16.4052 63.1514 16.2262C63.3815 16.044 63.5573 15.79 63.6787 15.464C63.8034 15.138 63.8657 14.756 63.8657 14.3182C63.8657 13.8803 63.805 13.5 63.6835 13.1772C63.5621 12.8544 63.3863 12.6051 63.1562 12.4293C62.926 12.2536 62.6464 12.1657 62.3172 12.1657C61.9816 12.1657 61.6988 12.2567 61.4687 12.4389C61.2385 12.6211 61.0644 12.8736 60.9461 13.1964C60.8279 13.5192 60.7687 13.8931 60.7687 14.3182C60.7687 14.7464 60.8279 15.1252 60.9461 15.4544C61.0676 15.7804 61.2417 16.036 61.4687 16.2214C61.6988 16.4036 61.9816 16.4947 62.3172 16.4947Z" fill="white"/>
<g clip-path="url(#clip0_26_778)">
<path d="M17.9982 4H8.00175C5.79164 4 4 5.79165 4 8.00176V17.9982C4 20.2083 5.79164 22 8.00175 22H17.9982C20.2083 22 22 20.2083 22 17.9982V8.00176C22 5.79165 20.2083 4 17.9982 4Z" fill="url(#paint0_linear_26_778)"/>
<path d="M8.56057 10.9517C11.8453 11.355 14.1888 14.3366 13.8066 17.6213C13.8066 17.6318 13.8066 17.645 13.8039 17.6556C13.8039 17.6661 13.8039 17.674 13.7987 17.6846C13.7301 18.2276 13.5904 18.7443 13.3927 19.2267C12.0852 19.0659 10.9279 18.4992 10.0315 17.6635C10.0974 17.5027 10.1555 17.3366 10.2055 17.1679C10.3057 16.841 10.3769 16.4983 10.4217 16.1477C10.4744 15.7206 10.4797 15.2988 10.4428 14.8875C10.311 13.3797 9.61241 12.0036 8.54211 11.007C8.54738 10.9886 8.55529 10.9728 8.5632 10.9544L8.56057 10.9517Z" fill="url(#paint1_linear_26_778)"/>
<path d="M17.4393 15.0484C14.1546 14.6451 11.8111 11.6635 12.1933 8.3788C12.1933 8.36825 12.1933 8.35507 12.1959 8.34452C12.1959 8.33398 12.1959 8.32607 12.2012 8.31553C12.2697 7.77247 12.4095 7.25578 12.6072 6.77335C13.9147 6.93416 15.072 7.50094 15.9683 8.33662C15.9024 8.49743 15.8444 8.66351 15.7944 8.83222C15.6942 9.15911 15.623 9.50182 15.5781 9.85243C15.5255 10.2795 15.5202 10.7013 15.5571 11.1125C15.6889 12.6204 16.3875 13.9965 17.4578 14.993C17.4525 15.0115 17.4446 15.0273 17.4367 15.0458L17.4393 15.0484Z" fill="url(#paint2_linear_26_778)"/>
<path d="M17.4393 15.0484C14.1546 14.6451 11.8111 11.6636 12.1933 8.37881C12.9235 9.6521 14.1098 10.646 15.5571 11.1152C15.9182 11.2338 16.2978 11.3182 16.688 11.3657C17.0439 11.4078 17.3972 11.421 17.7425 11.4026C17.9771 11.3894 18.2064 11.363 18.4358 11.3261C19.0368 12.4017 19.3137 13.6697 19.1555 14.9878C19.1555 14.9983 19.1555 15.0062 19.1502 15.0168C18.6256 15.1038 18.0826 15.1196 17.529 15.0616C17.4921 15.0563 17.4631 15.0537 17.4393 15.051V15.0484Z" fill="white"/>
<path d="M8.56053 10.9517C11.8452 11.355 14.1888 14.3366 13.8065 17.6213C13.0763 16.3481 11.89 15.3542 10.4428 14.885C10.0816 14.7663 9.70201 14.682 9.31185 14.6345C8.95596 14.5923 8.60271 14.5791 8.25737 14.5976C8.02274 14.6108 7.7934 14.6372 7.56405 14.6741C6.96299 13.5985 6.6862 12.3305 6.84436 11.0124C6.84436 11.0018 6.84436 10.9939 6.84964 10.9833C7.37424 10.8964 7.9173 10.8806 8.4709 10.9385C8.50254 10.9412 8.52889 10.9438 8.56053 10.9491V10.9517Z" fill="white"/>
</g>
<defs>
<linearGradient id="paint0_linear_26_778" x1="22.2821" y1="3.21177" x2="6.23547" y2="20.1309" gradientUnits="userSpaceOnUse">
<stop offset="0.01" stop-color="#E9913E"/>
<stop offset="1" stop-color="#F20000"/>
</linearGradient>
<linearGradient id="paint1_linear_26_778" x1="8.52629" y1="19.6854" x2="12.3962" y2="12.4227" gradientUnits="userSpaceOnUse">
<stop offset="0.19" stop-color="white"/>
<stop offset="0.4" stop-color="#FDFCFC" stop-opacity="0.99"/>
<stop offset="0.51" stop-color="#F9F4F5" stop-opacity="0.97"/>
<stop offset="0.6" stop-color="#F3E7E9" stop-opacity="0.93"/>
<stop offset="0.67" stop-color="#E9D4D7" stop-opacity="0.88"/>
<stop offset="0.74" stop-color="#DDBBC0" stop-opacity="0.81"/>
<stop offset="0.81" stop-color="#CE9CA4" stop-opacity="0.73"/>
<stop offset="0.87" stop-color="#BC7883" stop-opacity="0.63"/>
<stop offset="0.92" stop-color="#A84E5C" stop-opacity="0.51"/>
<stop offset="0.97" stop-color="#911F31" stop-opacity="0.38"/>
<stop offset="1" stop-color="#830317" stop-opacity="0.3"/>
</linearGradient>
<linearGradient id="paint2_linear_26_778" x1="18.7785" y1="1.01852" x2="12.9446" y2="16.385" gradientUnits="userSpaceOnUse">
<stop offset="0.19" stop-color="white"/>
<stop offset="0.4" stop-color="#FDFCFC" stop-opacity="0.99"/>
<stop offset="0.51" stop-color="#F9F4F5" stop-opacity="0.97"/>
<stop offset="0.6" stop-color="#F3E7E9" stop-opacity="0.93"/>
<stop offset="0.67" stop-color="#E9D4D7" stop-opacity="0.88"/>
<stop offset="0.74" stop-color="#DDBBC0" stop-opacity="0.81"/>
<stop offset="0.81" stop-color="#CE9CA4" stop-opacity="0.73"/>
<stop offset="0.87" stop-color="#BC7883" stop-opacity="0.63"/>
<stop offset="0.92" stop-color="#A84E5C" stop-opacity="0.51"/>
<stop offset="0.97" stop-color="#911F31" stop-opacity="0.38"/>
<stop offset="1" stop-color="#830317" stop-opacity="0.3"/>
</linearGradient>
<clipPath id="clip0_26_778">
<rect x="4" y="4" width="18" height="18" rx="5" fill="white"/>
</clipPath>
</defs>
</svg>
